/* XPM */
static char *dd00b6ac487b44569793d24846cc18b6PmjLzdwXt67xLMV5[] = {
/* columns rows colors chars-per-pixel */
"52 52 209 2 ",
"   c #030202",
".  c #090502",
"X  c #0C0904",
"o  c #05080A",
"O  c #0B0B0B",
"+  c #130302",
"@  c #140B02",
"#  c #1C0C03",
"$  c #18120A",
"%  c #0B0E11",
"&  c #060D19",
"*  c #0E1217",
"=  c #151414",
"-  c #12161A",
";  c #13181D",
":  c #1C1C1C",
">  c #260A01",
",  c #3A0700",
"<  c #231306",
"1  c #23150A",
"2  c #2A1408",
"3  c #2D1909",
"4  c #311305",
"5  c #371804",
"6  c #341C0B",
"7  c #3A1E0B",
"8  c #221B17",
"9  c #341D18",
"0  c #3E2107",
"q  c #3E220C",
"w  c #23201E",
"e  c #342213",
"r  c #3C2515",
"t  c #36201E",
"y  c #001625",
"u  c #0E1726",
"i  c #141C23",
"p  c #181E25",
"a  c #161F33",
"s  c #1C2125",
"d  c #16212C",
"f  c #1A222B",
"g  c #0C2435",
"h  c #192432",
"j  c #1D2935",
"k  c #1D2C3C",
"l  c #222222",
"z  c #2A2626",
"x  c #2A2827",
"c  c #2B2A2A",
"v  c #372E2A",
"b  c #3F352A",
"n  c #232E38",
"m  c #342F31",
"M  c #29353F",
"N  c #323232",
"B  c #36383B",
"V  c #3A3B3B",
"C  c #510900",
"Z  c #491901",
"A  c #441D0B",
"S  c #551A06",
"D  c #4B2505",
"F  c #43240C",
"G  c #4C250B",
"H  c #4C290D",
"J  c #532504",
"K  c #53260C",
"L  c #532B0C",
"P  c #5D2E0D",
"I  c #5D320D",
"U  c #47261A",
"Y  c #552C16",
"T  c #5C3211",
"R  c #5C351C",
"E  c #672E05",
"W  c #782F0E",
"Q  c #673000",
"!  c #64330B",
"~  c #763A0B",
"^  c #623412",
"/  c #6A3712",
"(  c #6C3B12",
")  c #743C13",
"_  c #743B1A",
"`  c #452A22",
"'  c #48332B",
"]  c #563727",
"[  c #4F3C36",
"{  c #673E23",
"}  c #7A410F",
"|  c #7D4316",
" . c #7D481F",
".. c #4C4139",
"X. c #6E4731",
"o. c #1A2B44",
"O. c #1B3349",
"+. c #212F41",
"@. c #243444",
"#. c #26394B",
"$. c #283848",
"%. c #2B3C4D",
"&. c #223A51",
"*. c #2A3F51",
"=. c #413D40",
"-. c #394248",
";. c #2C4154",
":. c #2B455A",
">. c #314659",
",. c #32475B",
"<. c #2C4963",
"1. c #364E64",
"2. c #384F65",
"3. c #395066",
"4. c #375168",
"5. c #3A5269",
"6. c #3E5972",
"7. c #3D5974",
"8. c #444444",
"9. c #4B4847",
"0. c #4B4B4B",
"q. c #554C49",
"w. c #575251",
"e. c #535354",
"r. c #57585A",
"t. c #5C5B5B",
"y. c #665653",
"u. c #7D614F",
"i. c #67635F",
"p. c #70625F",
"a. c #475462",
"s. c #595E63",
"d. c #405B75",
"f. c #435E7A",
"g. c #605F63",
"h. c #45617E",
"j. c #4C647C",
"k. c #626262",
"l. c #676766",
"z. c #676869",
"x. c #6D6D6D",
"c. c #70706E",
"v. c #737373",
"b. c #7A7576",
"n. c #737679",
"m. c #7B7B7B",
"M. c #833D08",
"N. c #873911",
"B. c #824616",
"V. c #884615",
"C. c #8E4A16",
"Z. c #834718",
"A. c #864919",
"S. c #8B4B1A",
"D. c #904B15",
"F. c #914E1A",
"G. c #94511C",
"H. c #9A5C35",
"J. c #887673",
"K. c #80807F",
"L. c #3E5F83",
"P. c #466481",
"I. c #486686",
"U. c #4A6987",
"Y. c #4C6C8B",
"T. c #4E6F90",
"R. c #517394",
"E. c #537699",
"W. c #56799C",
"Q. c #597DA2",
"!. c #5B81A6",
"~. c #5C83A9",
"^. c #848484",
"/. c #888788",
"(. c #8B8C8B",
"). c #938785",
"_. c #8D9091",
"`. c #959494",
"'. c #979797",
"]. c #9C9C9C",
"[. c #A3A4A4",
"{. c #A4A7A9",
"}. c #ABACAC",
"|. c #B6B1AF",
" X c #A6A9B0",
".X c #AEAEB0",
"XX c #AFB0B1",
"oX c #B4B3B3",
"OX c #BCBBBC",
"+X c #C3BEBB",
"@X c #C4C1BF",
"#X c #BFC1C1",
"$X c #C5C5C5",
"%X c #CBCBCB",
"&X c #CFD1D3",
"*X c #D3D4D4",
"=X c #D6D7D8",
"-X c #DBDBDB",
";X c #DDDFE0",
":X c #E3E3E4",
">X c #ECE6E4",
",X c #ECECEC",
"<X c #EFEFF0",
"1X c #F3F3F3",
"2X c #F5F6F6",
"3X c #F8F8F7",
"4X c gray98",
"5X c #FDFDFD",
"6X c white",
/* pixels */
"6X6X6X6X6X6X6X6X6X6X6X6X6X6X6X6X6X6X6X6X6X6X6X6X1X,X,X,X,X,X,X,X,X4X6X6X6X6X6X6X6X6X6X6X6X6X6X6X6X6X6X6X",
"6X6X6X6X6X6X6X6X6X6X6X6X6X6X6X6X6X6X6X6X6X6X4X*Xx.8.0.0.0.0.0.8.t.OX1X6X6X6X6X6X6X6X6X6X6X6X6X6X6X6X6X6X",
"6X6X6X6X6X6X6X6X6X6X6X6X6X6X6X6X6X6X6X6X4X=X/.m X . . . . . . . O x v.%X1X6X6X6X6X6X6X6X6X6X6X6X6X6X6X6X",
"6X6X6X6X6X6X6X6X6X6X6X6X6X6X6X6X6X6X6X6X:Xk.O . @ @ @ @ @ @ @ @ @ X X N $X6X6X6X6X6X6X6X6X6X6X6X6X6X6X6X",
"6X6X6X6X6X6X6X6X6X6X6X6X6X6X6X6X6X6X4X=X`.V . @ @ @ @ X . . . . . X   = m.$X2X6X6X6X6X6X6X6X6X6X6X6X6X6X",
"6X6X6X6X6X6X6X6X6X6X6X6X6X6X6X6X6X6X2X].=   @ @ @ . @ 7 F q q q q F 7 @ O l.:X6X6X6X6X6X6X6X6X6X6X6X6X6X",
"6X6X6X6X6X6X6X6X6X6X6X6X6X6X6X6X6X6X2X].=   @ X X 3 G ! ! ( | A.Z.) ^ G X z.:X6X6X6X6X6X6X6X6X6X6X6X6X6X",
"6X6X6X6X6X6X6X6X6X6X6X6X6X6X6X6X6X6X2X].=   @ X o 8 v b ] B.C.G.F.) L 6 : z.,X6X6X6X6X6X6X6X6X6X6X6X6X6X",
"6X6X6X6X6X6X6X6X6X6X6X6X6X6X6X6X6X6X2X].= # # . X g. X=X|.' 5 ! ( ] w : ].:X4X6X6X6X6X6X6X6X6X6X6X6X6X6X",
"6X6X6X6X6X6X6X6X6X6X6X6X6X6X6X6X6X6X2X`.$ ~ T 2 D J.OX>X+X' Z Q _ ).n.N OX6X6X6X6X6X6X6X6X6X6X6X6X6X6X6X",
"6X6X6X6X6X6X6X6X6X6X6X6X6X6X6X6X6X6X6XOXr.{ K L I  .H.H.H.S.C.C.|  .U : oX6X6X6X6X6X6X6X6X6X6X6X6X6X6X6X",
"6X6X6X6X6X6X6X6X6X6X6X6X6X6X6X6X-XOX$X$X}.9.# 6 3 L } C.C.A.| ( L Z ] b.=X6X6X6X6X6X6X6X6X6X6X6X6X6X6X6X",
"6X6X6X6X6X6X6X6X6X6X6X6X6X6X,XOX(.x.^.e.: 2 Y ^ F 2 3 T | | I H A + e.oXoX%X2X6X6X6X6X6X6X6X6X6X6X6X6X6X",
"6X6X6X6X6X6X6X6X6X6X6X6X2X#X}.oX*X1X4X*X^.v 5 K L F $ < F T H 7 1 1 $ = e.(.}.-X6X6X6X6X6X6X6X6X6X6X6X6X",
"6X6X6X6X6X6X6X6X6X6X4X=X).X.u.`._.+X2X6X2X$Xl.1 A K L L F < < 0 L P < = oX-X[.^.}.,X6X6X6X6X6X6X6X6X6X6X",
"6X6X6X6X6X6X6X6X6X1X[.X.W V.V.^ I { J.=X4X6X,XoXq.9 r I P K 5 0 L A q.`.:X2X=Xs.t.-X6X6X6X6X6X6X6X6X6X6X",
"6X6X6X6X6X6X6X6X4X=Xk.4 } S.F.F.B.! L ../.$X,X4X:X$X[.y.9 t z x [ ^.$X1X,X$X[.8.t.=X4X6X6X6X6X6X6X6X6X6X",
"6X6X6X6X6X6X6X6X#X0.R ) S.| ) ( / ( ! # e.oX%X=X1X4X,X$XoXOX*X-X:X=X:X1X:X}.e.7 ^ 9.OX6X6X6X6X6X6X6X6X6X",
"6X6X6X6X6X6X4X:X`.9 ~ G.G.S.| ! J D D e v.OX$X$X%X$X%X,X2X,X=X=X1X1X:X*X$X[.=.J M.3 (.-X4X6X6X6X6X6X6X6X",
"6X6X6X6X6X6X:Xz.U ) B.B.| / G H p.m.b.v.m.oX$X$X$XoX].oXOXOX$X$X$X%X$XOX}.(.N Z V.) U r.-X6X6X6X6X6X6X6X",
"6X6X6X6X6X6X:Xe.Z D.Z./ A > 9.`.:X6X4X$X^.m.`.oXOX}.].].].].oXOXOXOXoX]./.k.` J B.F.S V ;X6X6X6X6X6X6X6X",
"6X6X6X6X6X=X).[ E F.G.A.G . (.4X6X6X6X6X=Xe.0.`.v.r.k.k.k.k.k.k.k.k.l.k.V 1 P B.G.G.E ] ).*X6X6X6X6X6X6X",
"6X6X6X6X4X].+ S A.F.B.S ' `.=X6X6X6X6X6X1X$X(.e.: O = = = = = = = = % O   @ 6 ^ B.F.A.G . /.4X6X6X6X6X6X",
"6X6X6X6X4X].+ S A.S./ 4 e.:X6X6X6X6X6X6X,X].s.M i - = : : : : : : ; p j i   X q ( S.S.K . ^.4X6X6X6X6X6X",
"6X6X6X6X6X].# W G.~ 7 ).=X4X6X6X6X6X6X6X=X0.; 7.U.6.,.P.d.1.h.7.#.6.I.1.j     @ F Z.G.W > /.4X6X6X6X6X6X",
"6X6X6X4X:X(.4 M.S.E 8 ].,X6X6X6X6X6X6X2X$Xe.d P.Q.R.h.W.T.6.R.U.,.Y.Q.f.@.o   + 6 / S.N., m.:X4X6X6X6X6X",
"6X6X6X=Xt.` ) C.G.B.T ` p.@X,X6X6X6X2X}.V @.f.Q.!.Q.Q.~.U.*.,.,.%.U.~.Q.6.d O 4 T Z.G.F.) U e.=X6X6X6X6X",
"6X6X6X=Xz C F.S.F.A.F 3 7 w ].4X6X6X4X].- 1.R.!.!.!.!.W.f.@.j j $.U.~.!.h.@.*   F Z.F.S.G.S m %X6X6X6X6X",
"6X6X6X=Xc C | ( B.S.T # w k.OX4X6X1XOXn.&.E.~.!.!.~.W.f.,.@.* i ;.Y.~.!.U.:.i > I S.B.( | Z c $X6X6X6X6X",
"6X6X6X,X[.y.e e U Y r y.[.1X6X6X6X=X8.g 7.Q.~.Q.Y.E.Q.f.,.@.% f 3.R.~.!.U.:.i 1 r Y Y e e w.].:X6X6X6X6X",
"6X6X6X6X6X=X{.}..X}.{.-X6X6X6X4X$Xb.M <.R.Q.~.E.6.6.P.6.;.d ; ;.U.Q.!.!.U.#.s m..XXX.X}.{.=X6X6X6X6X6X6X",
"6X6X6X6X6X6X6X6X6X6X6X6X6X6X6X1XK.o #.R.~.!.~.W.d.1.1.,.k % p 6.Q.~.!.!.U.@.x oX6X6X6X6X6X6X6X6X6X6X6X6X",
"6X6X6X6X6X6X6X6X6X6X6X6X6X6X=Xv.B ;.T.Q.!.!.~.W.d.2.1.%.d % d 5.Q.~.!.!.U.@.x oX4X6X6X6X6X6X6X6X6X6X6X6X",
"6X6X6X6X6X6X6X6X6X6X6X6X6X6X$X= u h.W.!.!.!.~.W.d.,.@.p o % f 6.Q.~.!.!.U.@.x oX4X6X6X6X6X6X6X6X6X6X6X6X",
"6X6X6X6X6X6X6X6X6X6X6X6X6X,X}.h o.5.6.R.~.~.Q.R.6.,.n %   % h 5.E.!.!.W.P.@.x oX4X6X6X6X6X6X6X6X6X6X6X6X",
"6X6X6X6X6X6X6X6X6X6X6X6X1Xx.: ,.4.2.5.U.E.R.P.5.1.k n k.e.: h ;.5.Y.Y.6.5.@.x oX4X6X6X6X6X6X6X6X6X6X6X6X",
"6X6X6X6X6X6X6X6X6X6X6X,XoXr.h 1.5.5.5.5.5.5.5.:.k 0.].,X$XN y ;.2.5.5.3.5.@.x oX6X6X6X6X6X6X6X6X6X6X6X6X",
"6X6X6X6X6X6X6X6X6X2X$Xv.f *.5.5.5.5.5.3.3.3.1.j % [.6X6X$XN y ;.3.5.3.5.5.*.n n.$X1X6X6X6X6X6X6X6X6X6X6X",
"6X6X6X6X6X6X6X6X6X:Xz.; :.1.5.5.5.5.5.5.5.1.g -.].-X6X6X$XN y ;.3.5.5.5.5.3.:.u i.:X6X6X6X6X6X6X6X6X6X6X",
"6X6X6X6X6X6X6X6X%Xv.-.+.5.5.3.5.5.5.5.5.1.#.* l.,X6X2X}.s.%.o.;.3.5.3.3.5.5.5.u t.:X6X6X6X6X6X6X6X6X6X6X",
"6X6X6X6X6X6X6X4X}.: O.P.R.f.3.3.3.3.3.5.O.p `.-X4X6X,Xl.& <.2.1.3.3.3.5.Y.Y.:.s c.:X6X6X6X6X6X6X6X6X6X6X",
"6X6X6X6X6X6X6X4X}.: O.U.Q.Q.Y.d.6.d.6.*.a V $X6X6X6X1X^.f k 1.d.6.5.h.E.!.L.@.`.:X4X6X6X6X6X6X6X6X6X6X6X",
"6X6X6X6X6X6X6X4X$Xt.$.#.5.U.R.Y.Y.I.P.a.(.-X4X6X6X6X6X<XOXz.j.I.Y.Y.T.R.h.o.x oX6X6X6X6X6X6X6X6X6X6X6X6X",
"6X6X6X6X6X6X6X6X,XOXr.O - i f p p V m.&X3X6X6X6X6X6X6X6X6X:X/.u p f f p i O x oX4X6X6X6X6X6X6X6X6X6X6X6X",
"6X6X6X6X6X6X6X6XoXN : x w : w : O m.,X6X6X6X6X6X6X6X6X6X6X1X/.O = 8 : 8 x : x oX6X6X6X6X6X6X6X6X6X6X6X6X",
"6X6X6X6X6X6X2XOXx.: l x l l = c b.$X4X6X6X6X6X6X6X6X6X6X6X,X/.O : l l l x l x v.OX2X6X6X6X6X6X6X6X6X6X6X",
"6X6X6X6X6X%Xm.N O x x : s : O V *X6X6X6X6X6X6X6X6X6X6X6X6X,X^.O = : l l l l l : N ^.=X6X6X6X6X6X6X6X6X6X",
"6X6X6X:X`.e.x c N c c ^.oX[.t.8.%X6X6X6X6X6X6X6X6X6X6X6X6X,X^.V /.}.OXOXOXOXOX$XoX(.^.`.:X6X6X6X6X6X6X6X",
"6X2X[.v.^.}.$X$X$X$X$XOX/.v.[.*X1X6X6X6X6X6X6X6X6X6X6X6X6X4X:XOX^.^.].`.`.`.`.].`.^.8.r.=X6X6X6X6X6X6X6X",
"6X2X/.8.v.(.`.`.`.(./.OX%X%X,X6X6X6X6X6X6X6X6X6X6X6X6X6X6X6X6X2X=X*X=X=X*X*X*X*X=X=X=X:X2X6X6X6X6X6X6X6X",
"6X6X1X:X:X:X:X:X:X:X-X1X6X6X6X6X6X6X6X6X6X6X6X6X6X6X6X6X6X6X6X6X6X6X6X6X6X6X6X6X6X6X6X6X6X6X6X6X6X6X6X6X",
"6X6X6X6X6X6X6X6X6X6X6X6X6X6X6X6X6X6X6X6X6X6X6X6X6X6X6X6X6X6X6X6X6X6X6X6X6X6X6X6X6X6X6X6X6X6X6X6X6X6X6X6X"
};
