/* XPM */
static char *_292c4f07fc948fc856eb2fa906fecc64kFSYnYEiUCpcGIr[] = {
/* columns rows colors chars-per-pixel */
"52 52 176 2 ",
"   c None",
".  c #030303",
"X  c #0B0602",
"o  c #0D0905",
"O  c #07080A",
"+  c #0B0B0B",
"@  c #150B01",
"#  c #1A0D01",
"$  c #120E0B",
"%  c #130700",
"&  c #1C1006",
"*  c #13110F",
"=  c #1C130B",
"-  c #0B0E11",
";  c #060D11",
":  c #0D1114",
">  c #0C141A",
",  c #07121A",
"<  c #131414",
"1  c #12161A",
"2  c #14191D",
"3  c #1C1C1C",
"4  c #1D1812",
"5  c #240F00",
"6  c #241303",
"7  c #2B1502",
"8  c #2F1803",
"9  c #2B1A0B",
"0  c #341A02",
"q  c #3B1D02",
"w  c #381F0A",
"e  c #321A06",
"r  c #251B11",
"t  c #231F1C",
"y  c #3C2109",
"u  c #26211D",
"i  c #33261A",
"p  c #362619",
"a  c #0F1B24",
"s  c #0F1F2B",
"d  c #131C23",
"f  c #1B1E22",
"g  c #15222B",
"h  c #1D2226",
"j  c #142633",
"k  c #172835",
"l  c #192935",
"z  c #1B2E3C",
"x  c #192732",
"c  c #232424",
"v  c #23272A",
"b  c #2B2B2B",
"n  c #2A2927",
"m  c #352D26",
"M  c #3D332A",
"N  c #293036",
"B  c #25333D",
"V  c #333333",
"C  c #3A3734",
"Z  c #3B3B3C",
"A  c #3A3938",
"S  c #431D00",
"D  c #4C1F00",
"F  c #462202",
"G  c #4B2401",
"H  c #482608",
"J  c #48280D",
"K  c #522600",
"L  c #562902",
"P  c #5B2B01",
"I  c #572E0A",
"U  c #4B2F16",
"Y  c #502F12",
"T  c #622E01",
"R  c #682F00",
"E  c #653101",
"W  c #6C3301",
"Q  c #733601",
"!  c #753803",
"~  c #7C3B01",
"^  c #603E1F",
"/  c #47382B",
"(  c #403E3D",
")  c #584534",
"_  c #7D5431",
"`  c #1E3443",
"'  c #213646",
"]  c #2D3B45",
"[  c #203748",
"{  c #233A4C",
"}  c #2B3D4A",
"|  c #263947",
" . c #313C44",
".. c #253F52",
"X. c #2D404F",
"o. c #38434B",
"O. c #264154",
"+. c #284154",
"@. c #29455A",
"#. c #2B485E",
"$. c #274358",
"%. c #2E4D64",
"&. c #2D4F69",
"*. c #2E516C",
"=. c #305067",
"-. c #31526B",
";. c #345771",
":. c #355974",
">. c #385E7A",
",. c #3A607D",
"<. c #434343",
"1. c #4B4B4A",
"2. c #484746",
"3. c #534C45",
"4. c #4F585F",
"5. c #4E555B",
"6. c #565656",
"7. c #5A5A5B",
"8. c #685849",
"9. c #61554A",
"0. c #5A5E61",
"q. c #636261",
"w. c #65676A",
"e. c #6A6B6C",
"r. c #756F69",
"t. c #76706B",
"y. c #747474",
"u. c #7A7B7C",
"i. c #833E01",
"p. c #8C4201",
"a. c #934601",
"s. c #974801",
"d. c #9B4901",
"f. c #A14D01",
"g. c #805027",
"h. c #9A7B63",
"j. c #8D8076",
"k. c #96867F",
"l. c #3B6483",
"z. c #3E6889",
"x. c #406C8D",
"c. c #436F91",
"v. c #437093",
"b. c #46769A",
"n. c #48799E",
"m. c #4B7DA4",
"M. c #4E83AB",
"N. c #4C80A7",
"B. c #5086AF",
"V. c #5187B1",
"C. c #5188B3",
"Z. c #848484",
"A. c #868689",
"S. c #90908F",
"D. c #939495",
"F. c #9B9B9C",
"G. c #989592",
"H. c #B29F93",
"J. c #A3A3A3",
"K. c #A9A9A9",
"L. c #B4B4B4",
"P. c #B9BABA",
"I. c #BDBDBD",
"U. c #B2B3BB",
"Y. c #CBBCB1",
"T. c #BFBFC0",
"R. c #C6C6C6",
"E. c #CBCBCB",
"W. c #D0D0D1",
"Q. c #D3D3D3",
"!. c #DBDCDC",
"~. c #DBDEE1",
"^. c #E5E5E5",
"/. c #ECECEC",
"(. c #F3F3F3",
"). c #FCFCFC",
/* pixels */
"                                                                                                        ",
"                                                                                                        ",
"                                  @ @ @ @ @ @ @ @ @ @ @ @ @                                             ",
"                            @ o X @ @ @ @ @ @ @ @ @ @ @ @ @ @ @ @                                       ",
"                          @ @ @ @ @ @ @ @ @ @ @ @ @ @ @ @ @ @ @ @ @ @                                   ",
"                        @ @ X o o o o o o o o o o o @ @ @ @ @ @ @ X @ @                                 ",
"                      . @ o O + & 7 0 0 7 # O O O O o o @ @ @ @ @ @ @ @ @                               ",
"                      6 F P P P T E E E T P L G 0 6 $ O O o o @ @ @ @ @ $                               ",
"                        C 6 G W ! W P G q p u t 3 r w 0 6 $ o $ $ @ $ @ @                               ",
"                        7.m J P L G 7 @ V D.~.~.U.k._ E K G E i.W 7 u                                   ",
"                          G.3.w G W P 0 M j.Y.Y.H.h.g.W R E P P Y / q.                                  ",
"                            U G Q d.d.p.i.~ i.p.d.a.i.E G 8 # # M                                       ",
"                                ) I T ~ a.d.d.f.f.a.Q G 6 + 6 F F 7 9 3.                                ",
"                                      / F ! s.i.L q 6 6 8 F P E E K q # X n                             ",
"                                      p 7 0 q e 7 6 6 8 q K T W W E L 7 $ Z Z.F.D.u.w.q.                ",
"                              <.3 + X $ = 6 8 F P E E T T T P G q 7 p r.L.Q.Q.P.y.Z 3 O <               ",
"                              3 2.D.T.W.L.q.t = r r r r r r = 4 2.F.W.!.R.S.1.p H T ! ~ L #             ",
"                              c 7.L.W.E.R.I.L.L.P.P.P.R.Q.^././.^.!.L.e.n w W p.a.d.a.~ K #             ",
"                              c 7.L.E.R.R.E.Q.^.).).).).).(.).(.!.K.y.( 4 6 q P ~ a.f.d.E 6             ",
"                              c 7.L.R.R.E.!./.(.(.(.(./.W.I.I.I.D.<.$ # q K E Q ~ i.a.d.E 5             ",
"                              c 7.L.W.R.R.R.R.I.L.L.L.L.J.F.Z.e.1.n 6 0 G P E ~ a.d.i.W ^ 9.            ",
"                              3 b q.Z.J.L.P.L.K.J.F.F.F.J.D.0.3 # G W Q Q W W ~ a.a.D $                 ",
"                              + . . < V <.<.<.<.<.<.<.<.<.<.b < 8 Q d.p.! ~ i.~ P Y 8.                  ",
"                              * 5 F q @ O + < 3 3 3 3 3 3 3 < + 6 P ~ p.p.d.d.~ 0 3                     ",
"                              * X & & o O + - < < < < < : < 9 G T E ! p.d.a.i.T 6 t                     ",
"                          3 * $ 6 7 6 $ - g ` ..@.%.%.O.g $ q ~ d.d.a.i.~ i.p.! y                       ",
"                          i H L 0 $ O : l -.x.l.%.-.l.,.] r q T ~ p.a.p.! G 6 A                         ",
"                              * O d ..l.x.;.{ g - X + 9 E a.a.i.~ ~ ~ p.p.P 6 A                         ",
"                            4.| -.n.b.:.$.` l l z v r q E p.d.d.f.f.d.p.Q S # A                         ",
"                          > &.m.N.v.>.@.z > : +.v.l.k @ q W p.d.d.a.p.i.Q S %                           ",
"                        ] ..l.m.c.;.#...z > : { c.b.:.X.m q S G G q q 0 y ) t.                          ",
"                    g z #.:.,.,.-.@...{ z > : { v.V.V.m.z.;.*.*.%...z , : q.                            ",
"                - s @.-.-.-.-.%.@.{ [ { z > : { c.M.M.N.M.M.B.M.n.l.-.@.+.} <.                          ",
"                1 k %.-.-.-.-.=.@.{ [ { z 2 - l %.l.b.m.N.m.N.m.b.,.-.-.-.` : C                         ",
"            h l { @.%.-.-.-.-.%.@.{ [ { z d : d z O.%.;.:.;.;.;.-.-.-.-.=.` > A                         ",
"            ; l @.%.-.-.-.%.O.{ [ [ [ [ [ [ ` g : d { -.-.-.-.-.-.-.-.-.-.` d A                         ",
"            b < - l %.-.-.%.O.{ ` ' ' ' [ { ` g - d { -.-.-.-.-.-.-.-.%.%.@.{ l , c                     ",
"                  o.} O.%.%.O.{ { ..O.O...{ ` g - d { -.-.-.-.-.=.%.#.$.O.O.O.` , 3                     ",
"                    3 , O.-.%.$.#.%.-.-.%.$.` d - d { -.-.-.-.-.%.#.@.%.-.-.-.#.` B 5.                  ",
"                      w. .' -.x.v.x.l.:.%.%.O.x : d { -.-.-.-.-.-.-.-.-.-.-.-.-.;.%.j -                 ",
"                        C a &.N.C.N.m.b.x.,.-...z g g x { =.-.-.-.-.-.-.-.-.-.%.#.{ a :                 ",
"                            0.| %.b.M.M.n.l.-.@.{ x : 1 $.x.n.b.b.b.b.b.b.b.b.x.:.@.g 1                 ",
"                                u.N k @.-.@.{ ' ` ` z l g g $.x.m.m.m.m.m.c.>.@.g v                     ",
"                                  Z 3 v v 1 + O + + : - O O + 1 1 1 1 1 1 2 f 2 O 3                     ",
"                                            A < O + c c < O < c n c c 3 c 7.F.D.<.c                     ",
"                                                  A c 3 < < 3 3 c n n c n y.E.R.7.c                     ",
"                                                    D.7.A c 3 < 3 c n c n y.W.R.7.c                     ",
"                                                        y.< O 3 n c c < c y.E.R.7.c                     ",
"                                                    D.e.w.y.A.J.K.K.J.J.K.R./.R.7.c                     ",
"                                                    <.O 3 Z 1.6.7.7.7.7.6.6.6.Z 3 3                     ",
"                                                                                                        ",
"                                                                                                        "
};
