/* XPM */
static char *_644f4c6f6b642a58130a6c83ab86dd6UM8Rzj58w2XhOfSg[] = {
/* columns rows colors chars-per-pixel */
"52 52 176 2 ",
"   c None",
".  c #030303",
"X  c #0B0602",
"o  c #0D0905",
"O  c #07080A",
"+  c #0B0B0B",
"@  c #150B01",
"#  c #1A0D01",
"$  c #120E0B",
"%  c #130700",
"&  c #1C1006",
"*  c #13110F",
"=  c #1C130B",
"-  c #0B0E11",
";  c #060D11",
":  c #0D1114",
">  c #0C141A",
",  c #07121A",
"<  c #131414",
"1  c #12161A",
"2  c #14191D",
"3  c #1C1C1C",
"4  c #1D1812",
"5  c #240F00",
"6  c #241303",
"7  c #2B1502",
"8  c #2F1803",
"9  c #2B1A0B",
"0  c #341A02",
"q  c #3B1D02",
"w  c #381F0A",
"e  c #321A06",
"r  c #251B11",
"t  c #231F1C",
"y  c #3C2109",
"u  c #26211D",
"i  c #33261A",
"p  c #362619",
"a  c #0F1B24",
"s  c #0F1F2B",
"d  c #131C23",
"f  c #1B1E22",
"g  c #15222B",
"h  c #1D2226",
"j  c #142633",
"k  c #172835",
"l  c #192935",
"z  c #1B2E3C",
"x  c #192732",
"c  c #232424",
"v  c #23272A",
"b  c #2B2B2B",
"n  c #2A2927",
"m  c #352D26",
"M  c #3D332A",
"N  c #293036",
"B  c #25333D",
"V  c #333333",
"C  c #3A3734",
"Z  c #3B3B3C",
"A  c #3A3938",
"S  c #431D00",
"D  c #4C1F00",
"F  c #462202",
"G  c #4B2401",
"H  c #482608",
"J  c #48280D",
"K  c #522600",
"L  c #562902",
"P  c #5B2B01",
"I  c #572E0A",
"U  c #4B2F16",
"Y  c #502F12",
"T  c #622E01",
"R  c #682F00",
"E  c #653101",
"W  c #6C3301",
"Q  c #733601",
"!  c #753803",
"~  c #7C3B01",
"^  c #603E1F",
"/  c #47382B",
"(  c #403E3D",
")  c #584534",
"_  c #7D5431",
"`  c #1E3443",
"'  c #213646",
"]  c #2D3B45",
"[  c #203748",
"{  c #233A4C",
"}  c #2B3D4A",
"|  c #263947",
" . c #313C44",
".. c #253F52",
"X. c #2D404F",
"o. c #38434B",
"O. c #264154",
"+. c #284154",
"@. c #29455A",
"#. c #2B485E",
"$. c #274358",
"%. c #2E4D64",
"&. c #2D4F69",
"*. c #2E516C",
"=. c #305067",
"-. c #31526B",
";. c #345771",
":. c #355974",
">. c #385E7A",
",. c #3A607D",
"<. c #434343",
"1. c #4B4B4A",
"2. c #484746",
"3. c #534C45",
"4. c #4F585F",
"5. c #4E555B",
"6. c #565656",
"7. c #5A5A5B",
"8. c #685849",
"9. c #61554A",
"0. c #5A5E61",
"q. c #636261",
"w. c #65676A",
"e. c #6A6B6C",
"r. c #756F69",
"t. c #76706B",
"y. c #747474",
"u. c #7A7B7C",
"i. c #833E01",
"p. c #8C4201",
"a. c #934601",
"s. c #974801",
"d. c #9B4901",
"f. c #A14D01",
"g. c #805027",
"h. c #9A7B63",
"j. c #8D8076",
"k. c #96867F",
"l. c #3B6483",
"z. c #3E6889",
"x. c #406C8D",
"c. c #436F91",
"v. c #437093",
"b. c #46769A",
"n. c #48799E",
"m. c #4B7DA4",
"M. c #4E83AB",
"N. c #4C80A7",
"B. c #5086AF",
"V. c #5187B1",
"C. c #5188B3",
"Z. c #848484",
"A. c #868689",
"S. c #90908F",
"D. c #939495",
"F. c #9B9B9C",
"G. c #989592",
"H. c #B29F93",
"J. c #A3A3A3",
"K. c #A9A9A9",
"L. c #B4B4B4",
"P. c #B9BABA",
"I. c #BDBDBD",
"U. c #B2B3BB",
"Y. c #CBBCB1",
"T. c #BFBFC0",
"R. c #C6C6C6",
"E. c #CBCBCB",
"W. c #D0D0D1",
"Q. c #D3D3D3",
"!. c #DBDCDC",
"~. c #DBDEE1",
"^. c #E5E5E5",
"/. c #ECECEC",
"(. c #F3F3F3",
"). c #FCFCFC",
/* pixels */
"                                                                                                        ",
"                                                                                                        ",
"                                            @ @ @ @ @ @ @ @ @ @ @ @ @                                   ",
"                                      @ @ @ @ @ @ @ @ @ @ @ @ @ @ @ @ X o @                             ",
"                                  @ @ @ @ @ @ @ @ @ @ @ @ @ @ @ @ @ @ @ @ @ @                           ",
"                                @ @ X @ @ @ @ @ @ @ o o o o o o o o o o o X @ @                         ",
"                              @ @ @ @ @ @ @ @ @ o o + + O + # 7 0 0 7 & o + o @ .                       ",
"                              $ @ @ @ @ @ o o + + @ 6 0 F L P T E E E T P P L F 6                       ",
"                              @ @ @ @ @ @ o $ 6 0 e r 3 t u p q G P W ! W F 6 C                         ",
"                                  u 7 W i.E G K E _ k.U.~.~.D.V @ 7 F L P J m 7.                        ",
"                                  7./ Y L P E R W g.h.H.Y.Y.j.M 0 P W G w 3.G.                          ",
"                                      M # # 8 G E i.a.d.p.i.~ i.p.d.d.Q G U                             ",
"                                3.9 7 F F 6 o 6 G Q a.f.f.d.d.a.~ T I )                                 ",
"                            v X @ q K E E L F 8 6 6 q L i.s.! F /                                       ",
"                q.w.u.D.F.Z.Z $ 7 L E W W T K q 8 6 6 7 e q 0 7 p                                       ",
"              < + 3 Z y.P.Q.Q.L.r.p 7 q G L T T T E E P F 8 6 = $ X + 3 <.                              ",
"            # L ~ ! T H p 1.S.R.!.W.F.2.4 = r r r r r r = t q.L.W.T.G.2.3                               ",
"            # K ~ a.d.a.p.W w n e.L.!.^././.^.Q.R.P.P.P.L.L.I.E.E.W.L.7.h                               ",
"            6 E d.f.a.~ P q 6 4 ( y.K.!.(.).(.).).).).).^.Q.E.E.E.E.L.7.c                               ",
"            5 E d.a.i.~ Q E K q # $ <.D.I.I.I.W./.(.(.(.(./.!.E.E.E.L.7.c                               ",
"            9.^ W i.d.a.~ E P G 0 6 n 1.e.Z.F.K.L.L.L.L.I.R.R.R.E.W.L.7.c                               ",
"                $ D a.a.~ W W Q Q W F # 3 0.G.J.F.F.F.J.K.L.P.L.K.Z.q.b 3                               ",
"                  8.Y P ~ i.~ ! p.d.Q 8 < b <.<.<.<.<.<.<.<.<.<.V < . . +                               ",
"                    3 0 ~ d.d.p.p.~ L 6 + < 3 3 3 3 3 3 3 < + O @ q F 5 *                               ",
"                    t 6 T i.a.d.p.! E T G 9 < : < < < < < - + + o & & X *                               ",
"                      y ! p.i.~ i.a.d.d.~ q $ g O.%.%.@...` g - $ 6 7 6 $ * 3                           ",
"                        A 6 G ! p.a.p.~ T q r ] ,.l.-.%.l.x.-.l : + @ 0 L H i                           ",
"                        Z 6 P p.p.~ ~ ~ i.a.a.E 9 o X - g { ;.x.l...d O *                               ",
"                        Z # S Q p.d.f.f.d.d.p.E q r v z l l ` $.:.b.n.-.| 4.                            ",
"                          % S Q i.p.a.d.d.p.W q @ k l.v.+.: > z @.>.v.N.m.&.>                           ",
"                          t.) y 0 q q F F S q m X.:.b.c.{ : > z ..#.;.c.m.l...]                         ",
"                            q.: , z ..%.*.*.;.z.m.V.V.v.{ : > z { ..@.-.,.,.:.#.z g                     ",
"                          <.} +.@.-.l.n.M.B.M.M.N.M.M.c.{ : > z { [ { @.%.-.-.-.-.@.s -                 ",
"                        C : ` -.-.-.,.b.m.N.m.N.m.b.l.%.l - 2 z { [ { @.=.-.-.-.-.%.k 1                 ",
"                        Z > ` =.-.-.-.-.;.;.;.:.;.%.O.z d : d z { [ { @.%.-.-.-.-.%.@.{ l h             ",
"                        A d ` -.-.-.-.-.-.-.-.-.-.{ d : g ` [ [ [ [ [ [ { O.%.-.-.-.%.@.l ;             ",
"                    c , k { $.%.%.-.-.-.-.-.-.-.-.{ d - g ` { [ [ [ [ ` { O.%.-.;.%.l - < b             ",
"                    3 , ` O.O.O.$.#.%.=.-.-.-.-.-.{ d : g ` { ..O.O...{ { O.%.%.O.} o.                  ",
"                  5.B ` #.-.-.-.%.@.#.%.-.-.-.-.-.{ d : d ` $.%.-.-.%.#.$.%.-.O., 3                     ",
"                - j %.;.-.-.-.-.-.-.-.-.-.-.-.-.-.{ d : x O.%.%.:.l.x.v.x.-.[  .w.                      ",
"                : a { #.%.-.-.-.-.-.-.-.-.-.%.{ x g g z ..-.,.x.b.m.N.C.N.&.a C                         ",
"                1 g @.:.x.b.b.b.b.b.b.b.b.n.x.$.1 : x { @.-.l.n.M.M.b.%.| 0.                            ",
"                    v g @.>.c.m.m.m.m.m.x.$.g g l z ` ` [ { @.-.@.k N u.                                ",
"                    3 O 2 f 2 1 1 1 1 1 1 + + + - : + + O + 1 c c 3 Z                                   ",
"                    c <.D.F.7.c 3 c c n c < + < c c + + < Z                                             ",
"                    c 7.R.E.y.n c n n c 3 3 < < 3 c Z                                                   ",
"                    c 7.R.W.y.n c n c 3 < 3 c Z 7.D.                                                    ",
"                    c 7.R.E.y.c < c c c 3 O < y.                                                        ",
"                    c 7.E./.E.K.J.K.K.K.J.A.y.w.e.G.                                                    ",
"                    3 3 Z 6.6.6.7.7.7.7.6.1.Z 3 + <.                                                    ",
"                                                                                                        ",
"                                                                                                        "
};
