/* XPM */
static char *db9085c3eb8f462281543ea8e0501df8dTFajrUpM5wJ9NvR[] = {
/* columns rows colors chars-per-pixel */
"52 52 16 1 ",
"  c None",
". c gray3",
"X c #150B00",
"o c #3E1E00",
"O c #222222",
"+ c #2D2D2D",
"@ c #703501",
"# c #203748",
"$ c #31526A",
"% c #9E4B01",
"& c #4D81A9",
"* c gray60",
"= c #B0B0B8",
"- c #C6C6C6",
"; c #F8F8F8",
": c white",
/* pixels */
"                                                    ",
"                                                    ",
"                                                    ",
"                                ......              ",
"                               .XXXXXX.             ",
"                              .XXXXXXXX.            ",
"                              .XXXXXXXX.            ",
"                             .XXXX.....X.           ",
"                             .XXX...oo...    ..     ",
"                             .XX..o@@@@@.   .@%..   ",
"                             .X..o..o@@.   .@o%@%   ",
"                              .%o@=;.o@.   ...@o%   ",
"                          .....@@@=;.@.    .%@...   ",
"                 ..........---:.o@%@@%@.    ..oo.   ",
"               ..o%oo%%%%%@.-:.@.@%%%%.     .@@@.   ",
"              .o@@@@@oo@@%@.-:.o.o%%@.      .@%@.   ",
"             .o@@@o@oo@@@@@.::.@@..%.-..  ..@%%.    ",
"            .oo@o...@@@@@..-::.o@@..-.@%..%%@o@.    ",
"           .@@@o.   .....*-:::.@oo.-.@%o@%%@%@.     ",
"          .%%%@o.      .**-:::.%%@.-.%%@%%@@..      ",
"         .%@%@%.       .***--:....-.@@@o@o..        ",
"         .%o%o%.       ....**-::---.@@oo..          ",
"         .@.@.o.       .OOO..*---.......            ",
"          ...%%.      .#...OO.*..                   ",
"             ..      .#$$#$..O.                     ",
"                     .#$$$$#$..                     ",
"                     .#$$&&$$.                      ",
"                    ..#$$&&&$#.                     ",
"       ..           .###$&&&&$#.                    ",
"      .;=..        .##.#$$&&&&$#.                   ",
"      .;OOO...     .#$#.#$$&&&&$.                   ",
"     .;OOOO.&$..  .#$$$#.#$$&&&&#.                  ",
"     .;OOOO.&&$$...#$$$$#.#$$&&&&#.                 ",
"    o;OOOO.$$&&&$$.#$$$$#..#$$&&&$.                 ",
"    o:++++.#$$&&&$#$$$$##. .#$$&&&#.                ",
"    o-+....#$$$$$$$$$$$#.   .#$$&&$#.               ",
"    o..  .###$$$$$$$$$$#.   .##$$$$#.               ",
"          ...###$$$$$$#.     .#$$$$$#.              ",
"             ...####$##.      .#$$&&$#.             ",
"                ...###.        .#$&&&$$.            ",
"                   ...         .#$$&&&$.            ",
"                                .#$$&&$..           ",
"                                .#$$$$.++.          ",
"                                 .###.OO++.         ",
"                                  ...OOOO++..       ",
"                                   .OOOOOO+++...    ",
"                                    .OOOOOOO++;=.   ",
"                                     .OOOOO;;;..    ",
"                                      .=;;;...      ",
"                                       ....         ",
"                                                    ",
"                                                    "
};
