/* XPM */
static char *_3cd9351814643f996b64ef3c3facd8dgfOv35jTHveXEpIF[] = {
/* columns rows colors chars-per-pixel */
"52 52 17 1 ",
"  c None",
". c gray3",
"X c #150B00",
"o c #703501",
"O c #9E4B01",
"+ c #C6C6C6",
"@ c white",
"# c #3E1E00",
"$ c #B5B5BD",
"% c gray60",
"& c gray2",
"* c #31526A",
"= c #222222",
"- c #4D81A9",
"; c black",
": c #203748",
"> c #2D2D2D",
/* pixels */
"                                                    ",
"                                                    ",
"                                                    ",
"                                                    ",
"                                                    ",
"                                                    ",
"                                 ......             ",
"                                .XXXXXX.            ",
"                               .XXXXXXXX.           ",
"                  ...     ......XXXXXXXX.           ",
"                ..oOo.....++++.XXXX.....X.          ",
"               .oOOoOoOOOO.+@@.XXX.ooooo..          ",
"              .oOOooOOoOOO.@++.XX.oooOOoo.          ",
"             .ooOoo.oo#oOo.@@+.XX...OOOo..          ",
"            .OOOo#..#oooOo.@@+..X.$@.#o..           ",
"           .OOOoo.  ...ooo.+@@.O.o$@.oo$.           ",
"          .OoOoO.      ...++@@.oooOOOOOo.           ",
"          .O#O#O.      .%%+++@...#OOOO#o.           ",
"          .o.o.#.       .%%++@.oo.#Oo#o.            ",
"           ...OO.       .%%+%+@.oo..Oo.%.           ",
"              ..        .%%%%+@+..++&&++.           ",
"                         .%%%++@@+++++...           ",
"                         ...%%%+++%%%.oOo.          ",
"                       ..*.=....%%...ooOO.          ",
"                    ...*--*.====..;;.ooOO.          ",
"                 ...*----*::....::..;.ooOo.  ..     ",
"                .*---------*:::**--*...oo##..#O.    ",
"               .:----******::::::**---*..OO.O#OO.   ",
"               .**-----*******:***-------.o#O...    ",
"              .********::::::::::****----*.#.OOO.   ",
"             .******::::........:::*******......    ",
"             .***:::....        ....::****.;.oo.    ",
"           ..******:.               ...:**:. ..     ",
"          .:******:.                 .*****.        ",
"          .******:.                  .***:::.       ",
"          .*--*:::.                 .::**--:.       ",
"          ...---*.                  .:*---..        ",
"         .=>=....                    .....>.        ",
"        .=>>>==.                      .==>==.       ",
"       .==>>>=.                       ..==>>=.      ",
"      .=>>>===.                       .$@@@@@$.     ",
"     .$@@@@@$.                         ........     ",
"     ........                                       ",
"                                                    ",
"                                                    ",
"                                                    ",
"                                                    ",
"                                                    ",
"                                                    ",
"                                                    ",
"                                                    ",
"                                                    "
};
