/* XPM */
static char *c582e2af714f4099b80d0a5a95d102abtKxcLeILqqybTAvr[] = {
/* columns rows colors chars-per-pixel */
"52 52 17 1 ",
"  c None",
". c black",
"X c gray2",
"o c gray3",
"O c #150B00",
"+ c #3E1E00",
"@ c #222222",
"# c #2D2D2D",
"$ c #703501",
"% c #203748",
"& c #31526A",
"* c #9E4B01",
"= c #4D81A9",
"- c gray60",
"; c #B5B5BD",
": c #C6C6C6",
"> c white",
/* pixels */
"                                                    ",
"                                                    ",
"                                                    ",
"                                                    ",
"                                                    ",
"                                                    ",
"                                                    ",
"                                                    ",
"                                                    ",
"                                                    ",
"                                                    ",
"                                                    ",
"                                                    ",
"                              oooooo                ",
"                             oOOOOOOo               ",
"                            oOOOOOOOOo              ",
"                            oOOOOOOOOo              ",
"                          ooOOOOoooooOo             ",
"                       ooo:oOOOo$$$$$oo oo          ",
"                      o++o:oOOo$$$**$$oo$$o         ",
"                     o+$$o:oOOoo$***$oo$$$o         ",
"                     o+$**oooOo;o$+$oo+$$$$o        ",
"                     o+$$*oo*o$;>o$$;o$$+o$o        ",
"                     o+*+$oo$$$*****$o$oo$*$o       ",
"                     o$$*oo$oo+****+$oo..o*$o       ",
"                     o$*+o:o$$o+*>;$o....o**$o      ",
"                     o+*$o-:o$$oo*$o....o$o+*$o     ",
"              oooooooo+$$o--:oo--XX.ooooo$o***o     ",
"             o&======o$***o----ooooo&&==oooo+$o     ",
"            o%=======o$**$$oooo%%&&&=====o o**o     ",
"            o&&===&&&&o$$$*$o@%%%%%%&&&==o  oo      ",
"           o%==&&&%&&==o$$*+ooo&&o&&&&o&&o          ",
"           o%=&&&o%&&&&&o$$***$oooo&%o%%&o          ",
"          o&&&&&%ooo%%&&&o$***ooo@#oo%&&&%o         ",
"         oo&&&%%%o  ooo%oo+$**$oo@@#o&&&&&o         ",
"        o&%&&&&&o      oo@o+$$*$oo#@oo&&&&o         ",
"        o=&&&&&%o        o@o++ooooooo@o&&&=o        ",
"        o==&%%%o          o oo oo@oooo@o===o        ",
"       o@o&===&o               o@##ooo@#ooo         ",
"      o@###@@ooo                ooooooo@#o#o        ",
"     o@@###@@o                       oo@##ooo       ",
"    o@###@@@o                       o;>o@##o;o      ",
"   o;>>>>>;o                        oooooooooo      ",
"   oooooooo                                         ",
"                                                    ",
"                                                    ",
"                                                    ",
"                                                    ",
"                                                    ",
"                                                    ",
"                                                    ",
"                                                    "
};
