/* XPM */
static char *_a7e398148b84008dc6257c03ce2b5315qq0P79aB9oAJ42c[] = {
/* columns rows colors chars-per-pixel */
"52 52 204 2 ",
"   c None",
".  c #030202",
"X  c #0A0502",
"o  c #0D0904",
"O  c #0B0B0B",
"+  c #05080B",
"@  c #150202",
"#  c #150B01",
"$  c #1C0C02",
"%  c #180A08",
"&  c #1A1209",
"*  c #0A0E11",
"=  c #050D1A",
"-  c #0E151B",
";  c #0B1015",
":  c #151414",
">  c #1C1C1C",
",  c #151619",
"<  c #2A0B01",
"1  c #230602",
"2  c #330D02",
"3  c #241104",
"4  c #2B1505",
"5  c #251509",
"6  c #351402",
"7  c #3C1C05",
"8  c #361807",
"9  c #201F1E",
"0  c #261712",
"q  c #391D17",
"w  c #37200F",
"e  c #24201E",
"r  c #3C2312",
"t  c #001626",
"y  c #0C1A23",
"u  c #0C1228",
"i  c #131B23",
"p  c #151F28",
"a  c #191E28",
"s  c #131F35",
"d  c #0F222F",
"f  c #15212B",
"g  c #1A2127",
"h  c #012437",
"j  c #132431",
"k  c #1A2731",
"l  c #192935",
"z  c #1B2D3B",
"x  c #13273A",
"c  c #222222",
"v  c #2A2626",
"b  c #2A2827",
"n  c #2B2A2A",
"m  c #392C27",
"M  c #232E36",
"N  c #323232",
"B  c #393A3A",
"V  c #36383B",
"C  c #392F31",
"Z  c #410100",
"A  c #540700",
"S  c #421D03",
"D  c #491804",
"F  c #5C1500",
"G  c #591C01",
"H  c #521700",
"J  c #501D13",
"K  c #4B1D14",
"L  c #640700",
"P  c #452106",
"I  c #4B2405",
"U  c #542302",
"Y  c #5C2401",
"T  c #5C2B01",
"R  c #582904",
"E  c #48271A",
"W  c #572814",
"Q  c #632D02",
"!  c #6A2C00",
"~  c #682D0D",
"^  c #722A00",
"/  c #7C2C00",
"(  c #663003",
")  c #6C3203",
"_  c #723401",
"`  c #763802",
"'  c #7C3A00",
"]  c #7A3300",
"[  c #64381A",
"{  c #6E3316",
"}  c #4A2D22",
"|  c #443629",
" . c #4A302D",
".. c #593529",
"X. c #5E3930",
"o. c #4F3530",
"O. c #763C20",
"+. c #4F4138",
"@. c #6F4432",
"#. c #182E42",
"$. c #1D3444",
"%. c #1A364B",
"&. c #10314C",
"*. c #233442",
"=. c #23394C",
"-. c #233849",
";. c #233E52",
":. c #423D40",
">. c #1F485F",
",. c #374248",
"<. c #254055",
"1. c #22445B",
"2. c #2A455B",
"3. c #2B495F",
"4. c #1E4863",
"5. c #2D4D64",
"6. c #2A4F69",
"7. c #214B66",
"8. c #304F67",
"9. c #2E5067",
"0. c #2F5069",
"q. c #31526A",
"w. c #305066",
"e. c #355A74",
"r. c #345E7C",
"t. c #375C78",
"y. c #39607E",
"u. c gray26",
"i. c #4B4746",
"p. c #504F4E",
"a. c #5D4744",
"s. c #525353",
"d. c #5B5C5C",
"f. c #4A4F53",
"g. c #675754",
"h. c #624F4A",
"j. c #6E645D",
"k. c #565C61",
"l. c #435463",
"z. c #605F63",
"x. c #44647E",
"c. c #626262",
"v. c #6D6B6B",
"b. c #727273",
"n. c #7C7C7C",
"m. c #75757C",
"M. c #842800",
"N. c #813403",
"B. c #823C02",
"V. c #8A3B00",
"C. c #923500",
"Z. c #963E00",
"A. c #864102",
"S. c #8C4201",
"D. c #934501",
"F. c #9A4601",
"G. c #964803",
"H. c #9C4A01",
"J. c #874512",
"K. c #A14D01",
"L. c #854820",
"P. c #A45727",
"I. c #A95A34",
"U. c #83604C",
"Y. c #8C7572",
"T. c #3B6483",
"R. c #3F6B8C",
"E. c #38648A",
"W. c #3E6E90",
"Q. c #406C8D",
"!. c #426F91",
"~. c #437295",
"^. c #45769A",
"/. c #487A9F",
"(. c #47789D",
"). c #4B7EA4",
"_. c #4D80A7",
"`. c #4E83AB",
"'. c #848484",
"]. c #8C8C8C",
"[. c #878788",
"{. c #988483",
"}. c #8C9091",
"|. c #949494",
" X c #9C9C9C",
".X c #989797",
"XX c #A3A4A4",
"oX c #ACADAD",
"OX c #B3B3B3",
"+X c #BBBBBB",
"@X c #AEADB0",
"#X c #C3BCBB",
"$X c #BDC0C1",
"%X c #C5C5C5",
"&X c #CBCBCB",
"*X c #D3D3D3",
"=X c #DBDBDB",
"-X c #D2D5D8",
";X c #DEE1E1",
":X c #E3E3E3",
">X c #ECECEC",
",X c #EDE6E4",
"<X c #F3F3F3",
"1X c #FBFBFB",
/* pixels */
"                                                                                                        ",
"                                                                                                        ",
"                                                o X X X X X X X O                                       ",
"                                            O X # # # # # # # # # o o                                   ",
"                                            X # # # # o X X X X X o . :                                 ",
"                                        : . $ # # X % 7 P P P P P P 7 # O                               ",
"                                        : . # o o 4 U ! ) ` A.D.S.' ) U o                               ",
"                                        : . # o + 0 m | [ S.F.H.H.' Y 7 >                               ",
"                                        : 1 $ X # c.oX-XOX| D ! ` ..e >                                 ",
"                                        & ] Q < U Y.#X,X#X .H ^ O.{.m.N                                 ",
"                                          [ U R Q J.P.I.P.G.F.F.A.L.E >                                 ",
"                                            1 8 4 T V.F.F.D.A.` Y H ..                                  ",
"                              +X].b.'.s.> 4 R ) I 4 8 ( B.B.( R D @                                     ",
"                          $XoXOX*X<X1X*X'.m 6 R T P $ 3 I Q U 7 4 5 & : s.].oX=X                        ",
"                        {.@.U.|.}.#X<X1X<X%Xv.0 S Y T T I 4 3 S T Q 4 : OX=XXX'.oX                      ",
"                      @./ Z.D.) ( O.Y.-X1X1X>XOXa.q E Q ! Y 7 S Y D a..X:X1X-Xk.d.                      ",
"                      2 B.G.H.H.S.! R +.[.%X>X1X;X%XXXg.q q v n o.'.%X<X>X%XXXu.g.                      ",
"                  p.[ N.D.A.' ` _ ` _ $ s.OX&X=X<X1X>X%XOX+X*X=X:X=X:X<X:XoXs.S ~ i.                    ",
"                  q N.K.K.G.A._ Y U U r b.+X%X%X&X%X&X,X<X>X=X=X<X<X:X*X%XXX:.G V.8                     ",
"                K N.S.S.B._ U I         n.OX%X%X%XOX XOX+X+X%X%X%X&X%X+XoX[.C H D.N.J                   ",
"                H F.S._ D <             '.n..XOX+XoX X X X XOX+X+X+XOX X].c.} Y A.H.F                   ",
"              X.^ K.K.D.U X               s.p..Xb.d.c.c.c.c.c.c.c.c.c.c.V 5 ! S.K.K.^ ..                ",
"            @ G S.H.S.F o.                  ].s.> O : : : : : : : : * O . # 7 ( A.H.D.U X               ",
"            @ F D.F.] 2                     k.*.i , : > > > > > > , a l y . o S ` F.D.Y @               ",
"            1 M.H.V.S                     p.y e.R.e.5.T.t.5.T.e.-.e.R.9.l . . # I A.H.M.1               ",
"            6 C.G.! 0                     s.j T.).~.T.).~.e.~.R.2.Q.).r.$.+ . # 7 _ G.C.Z               ",
"          E ' F.K.S.Q } j.                $.r.)._.).).`.R.;.3.2.;.Q.`.).e.d O 6 ( D.K.H.B.E s.          ",
"        v L H.G.H.D.I 8 7 e             , 6.^._._._._./.r.$.l l -.R.`._.T.$.; . P S.H.G.H.L C           ",
"        n A V.` S.G.Q $ e               %.^.`._._.`.).y.2.$.- i <.~.`._.R.1.i < Q G.D.` A.A n           ",
"          g.q r W W r g.              h r.).`.).~.(.).y.2.$.* f 9.~.`._.R.1.i 3 r W W r w h.            ",
"                                    *.7.^._.`./.e.e.T.e.<.f i 2.R.).`._.R.=.g                           ",
"                                  + ;.~.`._.`./.t.5.5.2.z * p e.).`._._.Q.$.b                           ",
"                                V 1.~._._._.`./.t.w.5.=.f * f e.).`._._.Q.$.b                           ",
"                              : u y.)._._._.`.).t.2.-.p + * f e.).`._._.R.$.b                           ",
"                              k &.q.e.^.`.`.).~.e.2.z * . * k q.^._._./.T.$.b                           ",
"                            > 2.9.8.q.R.(.^.T.q.5.z M     > j <.q.Q.!.e.q.%.b                           ",
"                          k.x 5.q.q.q.q.q.q.q.1.x f.        t <.8.q.q.q.q.%.b                           ",
"                        k ;.q.q.q.q.q.q.q.q.9.l *           t <.q.q.q.q.q.;.M                           ",
"                      - 1.9.q.q.q.q.q.q.q.6.h ,.            t <.q.q.q.q.q.q.1.y                         ",
"                    ,.#.q.q.q.q.q.q.q.q.9.=.;             =.#.<.9.q.q.q.q.q.9.y                         ",
"                  > &.T.~.y.q.9.9.9.q.q.&.a             = 4.8.5.9.9.q.q.R.W.>.g                         ",
"                  > %.R.).).!.t.e.t.e.;.s               f #.5.t.e.e.T.(._.E.*.                          ",
"                    -.%.9.R.~.!.!.E.T.l.                    x.E.R.Q.~.~.T.$.b                           ",
"                      O - i f p a B                           u i f f p i O b                           ",
"                  N > b e > e > O n.                          O : 9 > 9 b > b                           ",
"              +Xb.> c b c c : n m.                            O > c c c b c b b.+X                      ",
"          &Xn.N O b b > c > O B *X                            O : > c c c c c > N '.                    ",
"        |.s.b n N n n '.OXXXd.u.&X                            B ].oX+X+X+X+X+X%XOX].'.                  ",
"      b.'.oX%X%X%X%X%X+X].b.XX*X                              +X'.'. X.X.X.X.X X.X'.u.                  ",
"      u.b.].|.|.|.].].+X&X&X>X                                                                          ",
"                                                                                                        ",
"                                                                                                        "
};
