/* XPM */
static char *_b0be266006d44a4ecc608c28a6602e3iNvxbWhBfClCz5lt[] = {
/* columns rows colors chars-per-pixel */
"52 69 176 2 ",
"   c None",
".  c #030303",
"X  c #0C0906",
"o  c #0A0B0C",
"O  c #070708",
"+  c #130B01",
"@  c #1B0F04",
"#  c #100F0C",
"$  c #1E1106",
"%  c #15110D",
"&  c #1B130C",
"*  c #0B0E11",
"=  c #141414",
"-  c #191715",
";  c #161A1C",
":  c #1B1B1B",
">  c #151718",
",  c #221305",
"<  c #2C1603",
"1  c #2E1805",
"2  c #26190C",
"3  c #2D1B0C",
"4  c #241508",
"5  c #331A03",
"6  c #3B1D04",
"7  c #331E0C",
"8  c #231C16",
"9  c #3C220C",
"0  c #2C241D",
"q  c #3A2818",
"w  c #141D23",
"e  c #1B1F23",
"r  c #1F2123",
"t  c #16222B",
"y  c #1A252C",
"u  c #192731",
"i  c #1C2A35",
"p  c #1E2F3B",
"a  c #1F303D",
"s  c #232323",
"d  c #2C2926",
"f  c #2C2C2C",
"g  c #21282D",
"h  c #3E3124",
"j  c #3B332C",
"k  c #34322F",
"l  c #202B33",
"z  c #282F34",
"x  c #22313D",
"c  c #2E3032",
"v  c #353535",
"b  c #3C3C3C",
"n  c #401F02",
"m  c #432103",
"M  c #4C2502",
"N  c #4D2A0B",
"B  c #48270A",
"V  c #502702",
"C  c #552A03",
"Z  c #5B2C02",
"A  c #512B09",
"S  c #5F3107",
"D  c #4B2D12",
"F  c #402D1B",
"G  c #4B321D",
"H  c #50341B",
"J  c #622F02",
"K  c #653102",
"L  c #6C3301",
"P  c #68360A",
"I  c #733601",
"U  c #763802",
"Y  c #7A3A02",
"T  c #773D0B",
"R  c #6F3D11",
"E  c #4C3A2B",
"W  c #483728",
"Q  c #533A25",
"!  c #523D2B",
"~  c #433B35",
"^  c #4B3F35",
"/  c #4C443C",
"(  c #584839",
")  c #654223",
"_  c #7D512B",
"`  c #1F3544",
"'  c #223544",
"]  c #273946",
"[  c #243C4D",
"{  c #2A3A46",
"}  c #353D42",
"|  c #2F414E",
" . c #3B464E",
".. c #37454F",
"X. c #274155",
"o. c #284255",
"O. c #29455A",
"+. c #2B495E",
"@. c #364C5E",
"#. c #364550",
"$. c #2D4C63",
"%. c #314E66",
"&. c #2F5068",
"*. c #305067",
"=. c #31526A",
"-. c #345770",
";. c #365A75",
":. c #375D78",
">. c #385E7A",
",. c #385B75",
"<. c #3A607D",
"1. c #434343",
"2. c #4B4B4B",
"3. c #484949",
"4. c #544B44",
"5. c #5B4F44",
"6. c #594F4A",
"7. c #5E5146",
"8. c #58524E",
"9. c #424D54",
"0. c #4E555A",
"q. c #555454",
"w. c #5B5B5B",
"e. c #67594D",
"r. c #7F6855",
"t. c #585D61",
"y. c #636363",
"u. c #6B6B6B",
"i. c #6C6865",
"p. c #706A65",
"a. c #747474",
"s. c #7B7B7C",
"d. c #787878",
"f. c #823E01",
"g. c #864001",
"h. c #8B4201",
"j. c #944601",
"k. c #9C4A01",
"l. c #994B06",
"z. c #9E5210",
"x. c #A45713",
"c. c #8A694F",
"v. c #3D6584",
"b. c #3F6989",
"n. c #3E6887",
"m. c #416C8D",
"M. c #426F91",
"N. c #447295",
"B. c #467599",
"V. c #48799E",
"C. c #7E7E80",
"Z. c #4B7EA5",
"A. c #4C80A7",
"S. c #4D81A8",
"D. c #838384",
"F. c #8C8B8B",
"G. c #949494",
"H. c #9B9B9B",
"J. c #B29B8C",
"K. c #A3A3A4",
"L. c #ABABAB",
"P. c #B6B6B6",
"I. c #B4B4B4",
"U. c #BCBCBC",
"Y. c #D5C0AE",
"T. c #C3C3C3",
"R. c #CBCBCB",
"E. c #D6D6D6",
"W. c #D2D2D2",
"Q. c #D9D9D9",
"!. c #DFDFDF",
"~. c #E4E4E4",
"^. c #EAEAEA",
"/. c #F3F3F3",
"(. c gray98",
"). c #FEFEFE",
/* pixels */
"                                                                                                        ",
"                                                                                                        ",
"                                                                                                        ",
"                                                                                                        ",
"                                                                                                        ",
"                                                                  + + + + + + +                         ",
"                                                              & + + + + + + + + +                       ",
"                          / h h h j                         - + + + + + + + + + + +                     ",
"                      ! Q S I f.f.L H E E E E             d + + + + + $ , , , , , @ %                   ",
"                ^ ! R f.Y L I f.j.h.L U g.f.C ( y.w.w.w.v X + + + + < C J K L L K m $ =                 ",
"            0 9 K f.j.h.L M M J U U U f.j.j.9 F.W.P.P.I.u.# + + + $ M Z L h.k.k.f.K m %                 ",
"      W W 7 m K L L L J M 5 E ! C C Z I h.j.7 G.^.E.R.T.a.# + + X - ~ 4.) Y g.h.L 6 8 2.                ",
"    G L I I I I L m 5 F /       / & m L h.g.3 G././.Q.R.a.& 1 @ $ ^ K.R.p.7 Z L Q d f                   ",
"  7.Z f.V f.Y Z K 4 k               H K U L 2 G.(.).(.E.a.3 Y m M _ J.Y.r.N U Y c.6.= 0                 ",
": B U h.C K Z M K 2                 4.7 V A 4.L./.).).E.a.& V M C U z.x.l.j.j.f.T B $ n 0               ",
"X 6 K U Z 1 6 Z A 6.                3.s ~ 8.P.R.Q.^.(.Q.F.b % $ < M f.j.j.h.Y Z V m 6 J 9               ",
"  G 6 < <                           3.2.G.L.T.R.R.R.~.!.R.L.w.q + + 5 Z U I C m , < Z L I D             ",
"                                      y.s.H.I.U.T.U.R.^.~.W.^.d.1.1.1.8.) J N 6.q.~ m Y h.C             ",
"                                        1.G.H.I.P.L.T.!.~.!.^.T.U.U.R.R.i.j p.      e.P h.K 7 E         ",
"                                        y.u.G.L.L.H.I.T.!.^.R.R.R.R.W.G.a.d.          8 Z I L K D       ",
"                                          : q.D.H.H.H.L.R.~.R.U.P.K.u.                  q V L J L N 7.  ",
"                                          = : 1.y.u.F.H.L.P.I.s.y.u.                      3 6 5 J L N   ",
"                                        : w > : : s q.w.w.y.y.u.                          & < 6 J Z Q   ",
"                                      t.i [ t > > > > > > = % u.                          / 5 m m 5.    ",
"                                      i $.<.+.[ ' y > > > ; u ] { 9.                                    ",
"                                      x >.Z.m.N.m.$.p t t ' $.<.v.,.@.@.| {  .                          ",
"                                      [ m.S.S.S.V.v.=.X.X.=.v.b.B.S.Z.Z.N.v.<.+.]                       ",
"                                     .=.Z.S.S.S.V.b.=.X.o.-.b.m.m.N.A.S.S.S.S.Z.m.%. .                  ",
"                                  f X.n.A.S.S.A.N.=.O.[ [ O.O.$.=.;.b.b.m.N.Z.M.B.b.o.                  ",
"                                  e %.B.S.S.S.N.<.$.u w w w t [ O.O.O.*.=.;.v.-.<.>.o.                  ",
"                                  r >.A.S.S.Z.v.O.i o . . . o w t t t [ O.$.=.=.+.[ ..                  ",
"                                  ] b.Z.S.Z.m.;.' o . . . * i t i p a X.O.O.X.X.' 0.                    ",
"                                y $.N.B.M.Z.:.+.p o . . O * u [ $.=.=.=.+.' t y                         ",
"                                p $.<.:.;.v.=.' 3.  : 1.b o > ' +.$.O.o.a  .                            ",
"                              y [ =.=.=.=.=.*.i       F.C.> r e y a X.X.l                               ",
"                              u +.=.=.=.=.=.$.i       K.G.s s : : r l x                                 ",
"                            } ' =.=.=.=.=.=.O.y       K.H.f s s s 1.                                    ",
"                          c p +.=.=.=.=.=.&.[ y       s.D.F.v : w.                                      ",
"                          c ] =.=.=.=.=.=.$.i         y.a.T.b s                                         ",
"                          x o.=.=.=.=.=.$.[ w           a.T.f D.                                        ",
"                          ` X.+.=.=.=.+.X.` ;           y.H.f                                           ",
"                          =.v.;.$.=.=.=.$.O.w                                                           ",
"                          #.<.N.v.m.m.m.v.$.g                                                           ",
"                          f y a x x x a i l                                                             ",
"                          f > : : s : = = v                                                             ",
"                          f : s s f s > v                                                               ",
"                          v : s s f s s w.                                                              ",
"                        w.D.1.: s f : y.                                                                ",
"                        v T.y.s f s > s.                                                                ",
"                        v W.a.f f s s D.                                                                ",
"                        v W.a.f s :                                                                     ",
"                        v W.a.f s >                                                                     ",
"                        1.T.s.v s f                                                                     ",
"                          q.G.s.b                                                                       ",
"                          q.s.a.y.                                                                      ",
"                            y.u.                                                                        ",
"                                                                                                        ",
"                                                                                                        ",
"                                                                                                        ",
"                                                                                                        ",
"                                                                                                        ",
"                                                                                                        ",
"                                                                                                        ",
"                                                                                                        ",
"                                                                                                        ",
"                                                                                                        ",
"                                                                                                        ",
"                                                                                                        ",
"                                                                                                        "
};
