/* XPM */
static char *b0cba87550f64f9388c9c1c6b895b6d8yg493THnGmsCYAIr[] = {
/* columns rows colors chars-per-pixel */
"52 52 16 1 ",
"  c None",
". c gray3",
"X c #150B00",
"o c #3E1E00",
"O c #222222",
"+ c #2D2D2D",
"@ c #703501",
"# c #203748",
"$ c #31526A",
"% c #9E4B01",
"& c #4D81A9",
"* c gray60",
"= c #B0B0B8",
"- c #C6C6C6",
"; c #F8F8F8",
": c white",
/* pixels */
"                                                    ",
"                                                    ",
"                                                    ",
"              ......                                ",
"             .XXXXXX.                               ",
"            .XXXXXXXX.                              ",
"            .XXXXXXXX.                              ",
"           .X.....XXXX.                             ",
"     ..    ...oo...XXX.                             ",
"   ..%@.   .@@@@@o..XX.                             ",
"   %@%o@.   .@@o..o..X.                             ",
"   %o@...   .@o.;=@o%.                              ",
"   ...@%.    .@.;=@@@.....                          ",
"   .oo..    .@%@@%@o.:---..........                 ",
"   .@@@.     .%%%%@.@.:-.@%%%%%oo%o..               ",
"   .@%@.      .@%%o.o.:-.@%@@oo@@@@@o.              ",
"    .%%@..  ..-.%..@@.::.@@@@@oo@o@@@o.             ",
"    .@o@%%..%@.-..@@o.::-..@@@@@...o@oo.            ",
"     .@%@%%@o%@.-.oo@.:::-*.....   .o@@@.           ",
"      ..@@%%@%%.-.@%%.:::-**.      .o@%%%.          ",
"        ..o@o@@@.-....:--***.       .%@%@%.         ",
"          ..oo@@.---::-**....       .%o%o%.         ",
"            .......---*..OOO.       .o.@.@.         ",
"                   ..*.OO...#.      .%%...          ",
"                     .O..$#$$#.      ..             ",
"                     ..$#$$$$#.                     ",
"                      .$$&&$$#.                     ",
"                     .#$&&&$$#..                    ",
"                    .#$&&&&$###.           ..       ",
"                   .#$&&&&$$#.##.        ..=;.      ",
"                   .$&&&&$$#.#$#.     ...OOO;.      ",
"                  .#&&&&$$#.#$$$#.  ..$&.OOOO;.     ",
"                 .#&&&&$$#.#$$$$#...$$&&.OOOO;.     ",
"                 .$&&&$$#..#$$$$#.$$&&&$$.OOOO;o    ",
"                .#&&&$$#. .##$$$$#$&&&$$#.++++:o    ",
"               .#$&&$$#.   .#$$$$$$$$$$$#....+-o    ",
"               .#$$$$##.   .#$$$$$$$$$$###.  ..o    ",
"              .#$$$$$#.     .#$$$$$$###...          ",
"             .#$&&$$#.      .##$####...             ",
"            .$$&&&$#.        .###...                ",
"            .$&&&$$#.         ...                   ",
"           ..$&&$$#.                                ",
"          .++.$$$$#.                                ",
"         .++OO.###.                                 ",
"       ..++OOOO...                                  ",
"    ...+++OOOOOO.                                   ",
"   .=;++OOOOOOO.                                    ",
"    ..;;;OOOOO.                                     ",
"      ...;;;=.                                      ",
"         ....                                       ",
"                                                    ",
"                                                    "
};
