/* XPM */
static char *_13e4f8c42aa400cdfb9c470b455dd90vlcuiOVNagaawo3R[] = {
/* columns rows colors chars-per-pixel */
"64 64 75 1 ",
"  c None",
". c black",
"X c #010000",
"o c #000101",
"O c #010101",
"+ c #030201",
"@ c #040100",
"# c #060201",
"$ c #050402",
"% c #020506",
"& c #0A0703",
"* c #0D0705",
"= c #070809",
"- c #05090B",
"; c #0B0A0A",
": c #0B0B0C",
"> c #120702",
", c #120A00",
"< c #150A04",
"1 c #160B04",
"2 c #1D0A00",
"3 c #100F0F",
"4 c #15100A",
"5 c #090D10",
"6 c #080D11",
"7 c #0A0D10",
"8 c #0A0E11",
"9 c #0B0F11",
"0 c #0A0F12",
"q c #0B0F12",
"w c #0B1015",
"e c #0E1318",
"r c #121111",
"t c #151313",
"y c #161514",
"u c #171615",
"i c #131619",
"p c #1C1B1B",
"a c #191C1F",
"s c #1E1E1E",
"d c #2B1506",
"f c #221508",
"g c #311907",
"h c #0D1820",
"j c #0B1A25",
"k c #0A1B25",
"l c #09112C",
"z c #101820",
"x c #121821",
"c c #131F28",
"v c #1A1D29",
"b c #131F35",
"n c #172027",
"m c #14202A",
"M c #202020",
"N c #5B2C03",
"B c #5B2A09",
"V c #0F2749",
"C c #2E4E63",
"Z c #2D4B65",
"A c #4C4C4C",
"S c #505051",
"D c gray38",
"F c #646464",
"G c #964100",
"H c #954702",
"J c #994700",
"K c #994607",
"L c #8B8B8B",
"P c gray56",
"I c #EDE6E4",
"U c #EAEAEB",
"Y c gray95",
"T c gray96",
"R c #F5F6F6",
/* pixels */
"                                                                ",
"                                                                ",
"                                &&&&&&&&&                       ",
"                              &&&&&&&&&&&&&                     ",
"                             &&&&&&&&&&&&&&&                    ",
"                            &$&&&&&KKKKKKKK<&                   ",
"                            &@&&&KKKKKKKKKKK&                   ",
"                            &X,&&KyyyKJKK&&&&                   ",
"                            &&&&KKIIyKKKKI&&                    ",
"                            &&KKKKIIyKKKKI&&                    ",
"                             &KKKKKKKKKKKKg&                    ",
"                              &ddKKKKddKKgy                     ",
"                       yyyyyyyBNdddKKKKdgy                      ",
"                      yYYYYYyyNNNNNdddddNf4&&&                  ",
"                     yyyYYTYTyyyNNNNNNNNNNN&&Yyy                ",
"                   yyyGyyyyYYYUyyyNNNNNNNN&&YYYyy               ",
"                   yKKKKKKKyYYYYYy&&&&&&&&&YYYYYy               ",
"                  yyKKKKKKK2YYYYYYYYYYYYYYYYYYYyy&              ",
"                 yyKKKKyyyyyyyYYYYYYYYYYYYYYYYYyKy              ",
"                yyKKKyyy     yYYYYYYYYYYYYYYYYYyKKy             ",
"                yKKKyy       yyyYYYYYYYYYYYYYYyyKKy             ",
"               yyKKKy        SAyDDDDDDDDDDFDDDyKKKyy            ",
"              yyKKKy           yp;rtyyDDDD3:%<yyKKKyy           ",
"              yKKKKy          yyyyyyyyyyyyyyyX*yKKKKy           ",
"              yKKKy          yhZZZZZZZZZZZZZZX@<yKKKy           ",
"              yKKKy          yZZZZZZZZZZZZZZZ=X>yKKKy           ",
"             yKKKKKy        yZZZZZZZZZZZZZZZZZ:yyKKKKy          ",
"             yKKKKKy        iZZZZZZZZZZZZZZZZZwyKKKHKy          ",
"             yKKKKKy       yZZZZZZZZZZeZZZZZZZxyKKKKKy          ",
"              yyyyy       yZZZZZZZZZZZ6ZZZZZZZy yyyyy           ",
"                         yZZZZZZZZZZZZxZZZZZZZy                 ",
"                         yZZZZZZZZZZZ6cZZZZZZZy                 ",
"                        yZZZZZZZZZZZZ6mZZZZZZZy                 ",
"                       ylZZZZZZZZZZZ=6ZZZZZZZZy                 ",
"                      yZZZZZZZZZZZZ6X6ZZZZZZZZy                 ",
"                     yyZZZZZZZZZCZZyyaZZZZZZZZy                 ",
"                    yZZZZZZZZZZZZyy  yZZZZZZZZy                 ",
"                   yVZZZZZZZZZZZ6    yZZZZZZZZZy                ",
"                  yyVZZZZZZZZZZZy    yZZZZZZZZZky               ",
"                 yVVZZZZZZZZZZyy    yZZZZZZZZZVky               ",
"                 yVZZZZZZZZZZvy     yZZZZZZZZZVny               ",
"                 yVZZZZZZZZVby      yVZZZZZZZZVy                ",
"                 yVVZZZZVVVVy        yVVZZZZVVMy                ",
"                yLLVVVVVVLLy          yVVVVVVMMy                ",
"               yLMMMMMMMMLy           yMMMMMMMMy                ",
"              yLMMMMMMMMLLy           yMMMMMMMMMy               ",
"             yLMMMMMMMMLyy            yMMMMMMMMsMy              ",
"            yLLMMMMMMMLLy             yMMMMMMMMMLPy             ",
"            yLLLLLLLLLLy              yLLLLLLLLLLLy             ",
"             yyyyyyyyyy                yyyyyyyyyyy              ",
"                                                                ",
"                                                                ",
"                                                                ",
"                                                                ",
"                                                                ",
"                                                                ",
"                                                                ",
"                                                                ",
"                                                                ",
"                                                                ",
"                                                                ",
"                                                                ",
"                                                                ",
"                                                                "
};
