/* XPM */
static char *_f7d81fa8aca4067fdc5e23294308d496aoUQNdBxil0USll[] = {
/* columns rows colors chars-per-pixel */
"52 52 18 1 ",
"  c None",
". c black",
"X c gray3",
"o c #150B00",
"O c #060F1A",
"+ c #3E1E00",
"@ c #222222",
"# c #2D2D2D",
"$ c #703501",
"% c #203748",
"& c #31526A",
"* c #9E4B01",
"= c #4D81A9",
"- c gray60",
"; c #B0B0B8",
": c #C6C6C6",
"> c #F8F8F8",
", c white",
/* pixels */
"                                                    ",
"                                                    ",
"                              XXXXXX                ",
"                             XooooooX               ",
"                            XooooooooX              ",
"                            XooooooooX              ",
"                           XooooXXXXXoX             ",
"                           XoooXXX++XXX             ",
"                           XooXX+$$$$$X             ",
"                           XoXX+XX+$$X              ",
"                            X*+$;>X+$X              ",
"                        XXXXXX$$;>X$X               ",
"               XXXXXXXXXX-:,,:XX*$$*$X              ",
"              X$+$$**$X----:,,,:XXX*X               ",
"             X+**$***X--:,,:::,,-::X                ",
"             X***+*++X--::,,,,,:::XX                ",
"            X$**$XX$$X---::,,::::X$X       XXX      ",
"           X+$*$X  XX--:::,,,,,,X$+X      X$XXX     ",
"          X$+++X    X---:,,,,,,,X$$$X     XX$$X     ",
"         XXX++XX    X-::::,,:::,X$*$+XXXXXX***X     ",
"        X*+$X*$X     XXXX::::,,:X$*$++$$+$$$**X     ",
"        X*+*+XX      X@@@XX-::-X X$**$**$+$***X     ",
"         X$*+*X      XXXX@@XXXX   XX$**$$++$**X     ",
"          X**+X     X%&&%XX@X       XXXXXXXXXX      ",
"           XXX      X%&&%&%XXXX                     ",
"                   X%&==&&%X%%&XX                   ",
"                   X%&===&%X%&=&%XX                 ",
"                  X%&====&X%&====&&X                ",
"                  X%&===&%X%&&&===&X                ",
"                 X%&===&&X%%&&&&&&%X                ",
"                 X%&===&%XXX%%%&&&X                 ",
"                X%&&&&&%X%%%&&&&&%X                 ",
"               XX%&&&&&X%%&&&&&&%X                  ",
"              X%%&&&&&%XXX%%&&%XX                   ",
"             X%&&&&&&%XX@@X%%&X                     ",
"            X%&&&&&&%XX@@@@X%%X                     ",
"           X%&&&&&&%XX;@@@##XX                      ",
"          X%&=&&&&%X X>@@##X                        ",
"          X%&&==&%X  X>@##X                         ",
"         X@X%&&&&X   X>##X                          ",
"       XX@@@X%%%%X   X>#X                           ",
"      X;@@@@@XXXX    X;X                            ",
"      X>@@@@##X      XX                             ",
"      X>@@@##X                                      ",
"      O>@@##X                                       ",
"      .X>@#X                                        ",
"      .X>@#X                                        ",
"      .X>>>;X                                       ",
"      ..XXXXX                                       ",
"                                                    ",
"                                                    ",
"                                                    "
};
