/* XPM */
static char *_731213226e04154a60d2c3259d4bba26ajjM1l8ItuU2WYc[] = {
/* columns rows colors chars-per-pixel */
"52 52 16 1 ",
"  c None",
". c gray2",
"X c gray3",
"o c #150B00",
"O c #3E1E00",
"+ c #222222",
"@ c #2D2D2D",
"# c #703501",
"$ c #203748",
"% c #31526A",
"& c #9E4B01",
"* c #4D81A9",
"= c gray60",
"- c #B5B5BD",
"; c #C6C6C6",
": c white",
/* pixels */
"                                                    ",
"                                                    ",
"                                                    ",
"                                                    ",
"                              XXXXXX                ",
"                             XooooooX               ",
"                            XooooooooX              ",
"                            XooooooooX              ",
"                           XooooXXXXXoX             ",
"                           XoooX#####XX             ",
"                           XooX###&&##X             ",
"                        XX XooXXX&&&#XX             ",
"                     XXX;;XXXoX-:XO#XX              ",
"                  XXX#X;;;;X&X#-:X##-X              ",
"                 X&&&#X;;:XX###&&&&&#X              ",
"              XXX#&&&#X:;:X#XXO&&&&O#X              ",
"             XO##&&&&#X:;::X#OXO&#O#X               ",
"            X&#&OX##X#X::::X&#XXX&#XX               ",
"            XO&&&#XXXXX;:;::XX;;;..#&X              ",
"            X##&&&##&&&X;;::;;;:;=X&#X              ",
"             XO####&&&O#X;;:;::;;=X&#X  X           ",
"              XXXXO&O&X#X;;;:;;;=X###X X&XXX        ",
"                  X#X#XX==;;;==;XO###XXX#X#&X       ",
"                   XX&XXX==;==;=XXO#O#O#XXXXXX      ",
"                     X+++XXXXXXX  X#####OOX#&X      ",
"                     XX++@@@+X     XO####OOXX       ",
"                    X%$XX+++XXX     XXXXXX#&X       ",
"                   X%*$%$XXX$$$XX        XXX        ",
"                 XX****%$$$$$%$*%XXX                ",
"                X%****%%%$$$%******%XX              ",
"               X%****%%%%%$%%%%******%XX            ",
"              X%*******%%%$%%**********%X           ",
"             X%******%%%%$$%%%%%%%******X           ",
"            X$****%%%%$$XXX$$%%$%%%%%%**X           ",
"          XX$%%****%$$XX   XX$$$$$%%***%%X          ",
"         X$%%%%%$$$$XX       XXX$$$$%%%%%X          ",
"         X%%%%%%%$$X            XXXX$%%%%X          ",
"         X%%%%%%%$X               X%%%%%%$X         ",
"         X%*%%%%$$X               X$%%%%*%X         ",
"         X%**%%%$XX                X$%***%X         ",
"        X@X%***%X                   XXXXXXX         ",
"        X@@XXXXXX                   X+@@@@X         ",
"       X@@@@+X                       X+@@@X         ",
"       X@@@@+X                        X++@@X        ",
"      X+@@++X                         X++++@XX      ",
"     X+@@+++X                         X-:::::-X     ",
"    X-::::-X                           XXXXXXXX     ",
"    XXXXXXX                                         ",
"                                                    ",
"                                                    ",
"                                                    ",
"                                                    "
};
