/* XPM */
static char *_4dd5cc4460c4923f634129c79ff9127mqq2FNYnmIyiLDXU[] = {
/* columns rows colors chars-per-pixel */
"64 64 147 2 ",
"   c None",
".  c #6E441B",
"X  c #71461C",
"o  c #72471C",
"O  c #72481C",
"+  c #73481C",
"@  c #74481C",
"#  c #74491C",
"$  c #74491D",
"%  c #75491D",
"&  c #754A1D",
"*  c #764B1D",
"=  c #774B1D",
"-  c #774C1D",
";  c #784C1D",
":  c #794D1D",
">  c #784C1E",
",  c #7A4D1E",
"<  c #7A4E1E",
"1  c #7B4E1E",
"2  c #7B4F1E",
"3  c #7D501F",
"4  c #7D511F",
"5  c #7E521F",
"6  c #7F531F",
"7  c #794D20",
"8  c #7B4F20",
"9  c #7B5020",
"0  c #7C5021",
"q  c #7D5121",
"w  c #7D5221",
"e  c #7E5221",
"r  c #7F5321",
"t  c #80541F",
"y  c #82551F",
"u  c #805320",
"i  c #825520",
"p  c #835620",
"a  c #835720",
"s  c #835722",
"d  c #845620",
"f  c #845720",
"g  c #855720",
"h  c #845621",
"j  c #845721",
"k  c #855721",
"l  c #845723",
"z  c #855821",
"x  c #865821",
"c  c #865921",
"v  c #875921",
"b  c #875A21",
"n  c #845822",
"m  c #865923",
"M  c #885921",
"N  c #885A21",
"B  c #885A22",
"V  c #895B22",
"C  c #8A5B22",
"Z  c #8B5C22",
"A  c #8B5D22",
"S  c #8C5D22",
"D  c #8C5E22",
"F  c #8D5E22",
"G  c #8D5E23",
"H  c #8E5F23",
"J  c #8F5F23",
"K  c #895B24",
"L  c #8A5C24",
"P  c #8C5E25",
"I  c #8D5E25",
"U  c #8D5F25",
"Y  c #8E5F25",
"T  c #8C5F28",
"R  c #8F6023",
"E  c #8E6025",
"W  c #8D6028",
"Q  c #906023",
"!  c #906024",
"~  c #906124",
"^  c #916124",
"/  c #916224",
"(  c #926224",
")  c #926324",
"_  c #936324",
"`  c #946424",
"'  c #956424",
"]  c #956524",
"[  c #946425",
"{  c #956525",
"}  c #966525",
"|  c #966625",
" . c #976625",
".. c #976725",
"X. c #986725",
"o. c #996826",
"O. c #996926",
"+. c #9A6926",
"@. c #9B6926",
"#. c #9B6A26",
"$. c #92642B",
"%. c #93652B",
"&. c #94652B",
"*. c #94662C",
"=. c #95672C",
"-. c #96672C",
";. c #97692C",
":. c #996B2D",
">. c #9A6B2D",
",. c #996A2E",
"<. c #996B2E",
"1. c #9A6B2E",
"2. c #9B6C2E",
"3. c #9B6D2E",
"4. c #9C6D2E",
"5. c #9D6E2F",
"6. c #9E6E2F",
"7. c #9E6F2F",
"8. c #9F6F2F",
"9. c #9F702F",
"0. c #9E6F30",
"q. c #9F6F30",
"w. c #A37332",
"e. c #A37433",
"r. c #A47433",
"t. c #A47533",
"y. c #A57533",
"u. c #A57633",
"i. c #A67634",
"p. c #A77734",
"a. c #AE7D37",
"s. c #AF7E38",
"d. c #B28039",
"f. c #B28139",
"g. c #B38139",
"h. c #B38239",
"j. c #B48239",
"k. c #B4823A",
"l. c #B4833A",
"z. c #B5833A",
"x. c #BA883C",
"c. c #C39041",
"v. c #C49141",
"b. c #CD9945",
"n. c #CE9945",
"m. c #CE9A45",
"M. c #CE9A46",
/* pixels */
"                        T r.r.r.r.r.r.r.r.r.r.r.r.r.r.r.r.r.r.r.r.r.r.r.r.r.r.r.r.r.r.r.r.r.r.r.r.r.r.r.r.r.r.r.r.r.r.r.r.r.r.T ",
"                        r.n.n.n.n.n.n.n.n.n.n.n.n.n.n.n.n.n.n.n.n.n.n.n.n.n.n.n.n.n.n.n.n.n.n.n.n.n.n.n.n.n.n.n.n.n.n.n.n.n.n.r.",
"                        e.n.n.n.n.n.n.n.n.n.n.n.n.n.n.n.n.n.n.n.n.n.n.n.n.n.n.n.n.n.n.n.n.n.n.n.n.n.n.n.n.n.n.n.n.n.n.n.n.n.n.e.",
"                        e.n.n.n.n.n.n.n.n.n.n.n.n.n.n.n.n.n.n.n.n.n.n.n.n.n.n.n.n.n.n.n.n.n.n.n.n.n.n.n.n.n.n.n.n.n.n.n.n.n.n.e.",
"                        e.n.n.n.n.n.n.n.n.n.n.n.n.n.n.n.n.n.n.n.n.n.n.n.n.n.n.n.n.n.n.n.n.n.n.n.n.n.n.n.n.n.n.n.n.n.n.n.n.n.n.e.",
"                        e.n.n.n.n.n.n.n.n.n.n.n.n.n.n.n.n.n.n.n.n.n.n.n.n.n.n.n.n.n.n.n.n.n.n.n.n.n.n.n.n.n.n.n.n.n.n.n.n.n.n.e.",
"                        e.n.n.n.n.n.<.r.i.i.i.r.<.<.<.<.<.<.<.<.<.<.<.<.<.<.<.<.<.<.<.<.<.<.<.<.<.<.<.0.i.i.i.i.e.<.n.n.n.n.n.e.",
"                        e.n.n.n.n.n.r.n.n.n.n.n.$.+ = = , , , , , , , , , , , , , , , , , , , , , , 9 a.n.n.n.n.n.r.n.n.n.n.n.e.",
"                        e.n.n.n.n.n.i.n.n.n.n.n.n.;.b i / | | | | | | | | | | | | | | | | | | | / K f.n.n.n.n.n.n.i.n.n.n.n.n.e.",
"                        e.n.n.n.n.n.i.n.n.n.n.n.n.n.<.b b | +.+.+.+.+.+.+.+.+.+.+.+.+.+.+.+.+.X.P f.n.n.n.n.n.n.n.i.n.n.n.n.n.e.",
"                        e.n.n.n.n.n.i.n.n.n.n.n.n.n.n.<.b b | +.+.+.+.+.+.+.+.+.+.+.+.+.+.+.X.P f.n.n.n.n.n.n.n.n.i.n.n.n.n.n.e.",
"                        e.n.n.n.n.n.i.n.n.n.n.n.n.n.n.n.<.b b | +.+.+.+.+.+.+.+.+.+.+.+.+.X.P f.n.n.n.n.n.n.n.n.n.i.n.n.n.n.n.e.",
"                        e.n.n.n.n.n.r.n.n.n.n.n.n.n.n.n.n.<.b b | +.+.+.+.+.+.+.+.+.+.+.X.P f.n.n.n.n.n.n.n.n.n.s.0.n.n.n.n.n.e.",
"                        e.n.n.n.n.n.<.$.n.n.n.n.n.n.n.n.n.n.<.b b | | | | | | | | | | | P f.n.n.n.n.n.n.n.n.n.f.8 <.n.n.n.n.n.e.",
"                        e.n.n.n.n.n.<.o $.n.n.n.n.n.n.n.n.n.n.<.b 6 i B b b b b b b d i f.n.n.n.n.n.n.n.n.n.f.q o 2.n.n.n.n.n.e.",
"                        e.n.n.n.n.n.5., . &.n.n.n.n.n.n.n.n.n.n.<.b b | +.+.+.+.+.| P f.n.n.n.n.n.n.n.n.n.f.q , B 9.n.n.n.n.n.e.",
"                        e.n.n.n.n.n.9.i o + =.n.n.n.n.n.n.n.n.n.n.<.b b | +.+.+.X.P f.n.n.n.n.n.n.n.n.n.f.q , / | 9.n.n.n.n.n.e.",
"                        e.n.n.n.n.n.5.i = , = =.n.n.n.n.n.n.n.n.n.n.<.b b | +.X.P f.n.n.n.n.n.n.n.n.n.f.q , / +.| 9.n.n.n.n.n.e.",
"                        e.n.n.n.n.n.5.i , A d = =.n.n.n.n.n.n.n.n.n.n.<.b b / P f.n.n.n.n.n.n.n.n.n.f.q , / +.+.| 9.n.n.n.n.n.e.",
"                        e.n.n.n.n.n.5.i , H X.d = =.n.n.n.n.n.n.n.n.n.n.<.b d f.n.n.n.n.n.n.n.n.n.f.q , / +.+.+.| 9.n.n.n.n.n.e.",
"                        e.n.n.n.n.n.5.i , H +.X.d = =.n.n.n.n.n.n.n.n.n.n.W f.n.n.n.n.n.n.n.n.n.f.q , / +.+.+.+.| 9.n.n.n.n.n.e.",
"                        e.n.n.n.n.n.5.i = B / / R 6 = =.n.n.n.n.n.n.n.n.i.j.n.n.n.n.n.n.n.n.n.f.q = B / / / / / H 5.n.n.n.n.n.e.",
"                        e.n.n.n.n.n.5.i = d H H H A 6 = =.n.n.n.n.n.n.r.j.n.n.n.n.n.n.n.n.n.f.q - b H H H H H H B 5.n.n.n.n.n.e.",
"                        e.n.n.n.n.n.5.i , H +.+.+.+.| d = =.n.n.n.n.r.j.n.n.n.n.n.n.n.n.n.f.q , / +.+.+.+.+.+.+.| 9.n.n.n.n.n.e.",
"                        e.n.n.n.n.n.5.i , H +.+.+.+.+.| d = =.n.n.r.j.n.n.n.n.n.n.n.n.n.f.q , / +.+.+.+.+.+.+.+.| 9.n.n.n.n.n.e.",
"                        e.n.n.n.n.n.5.i , H +.+.+.+.+.+.| d = &.w.j.n.n.n.n.n.n.n.n.n.f.q , / +.+.+.+.+.+.+.+.+.| 9.n.n.n.n.n.e.",
"                        e.n.n.n.n.n.5.i , H +.+.+.+.+.+.+.X.i q f.n.n.n.n.n.n.n.n.n.j.W b i | +.+.+.+.+.+.+.+.+.| 9.n.n.n.n.n.e.",
"                        e.n.n.n.n.n.5.i , H +.+.+.+.+.+.+.X.P f.n.n.n.n.n.n.n.n.n.j.i.n.<.b b | +.+.+.+.+.+.+.+.| 9.n.n.n.n.n.e.",
"                        e.n.n.n.n.n.5.i , H +.+.+.+.+.+.X.P f.n.n.n.n.n.n.n.n.n.j.r.n.n.n.<.b b | +.+.+.+.+.+.+.| 9.n.n.n.n.n.e.",
"                        e.n.n.n.n.n.5.i = i A A A A A B L f.n.n.n.n.n.n.n.n.n.j.r.n.n.n.n.n.<.b d B A A A A A A b 5.n.n.n.n.n.e.",
"                        e.n.n.n.n.n.5.i = B / / / / R b f.n.n.n.n.n.n.n.n.n.j.r.n.n.n.n.n.n.n.<.b 6 H / / / / / H 5.n.n.n.n.n.e.",
"                        e.n.n.n.n.n.5.i , H +.+.+.X.P f.n.n.n.n.n.n.n.n.n.f.w.n.n.n.n.n.n.n.n.n.<.b b | +.+.+.+.| 9.n.n.n.n.n.e.",
"                        e.n.n.n.n.n.5.i , H +.+.X.P f.n.n.n.n.n.n.n.n.n.f.8 $.n.n.n.n.n.n.n.n.n.n.<.b b | +.+.+.| 9.n.n.n.n.n.e.",
"                        e.n.n.n.n.n.5.i , H +.X.P f.n.n.n.n.n.n.n.n.n.f.q + = =.n.n.n.n.n.n.n.n.n.n.<.b b | +.+.| 9.n.n.n.n.n.e.",
"                        e.n.n.n.n.n.5.i , H X.P f.n.n.n.n.n.n.n.n.n.f.q , H d = =.n.n.n.n.n.n.n.n.n.n.<.b b | +.| 9.n.n.n.n.n.e.",
"                        e.n.n.n.n.n.5.i , A E f.n.n.n.n.n.n.n.n.n.f.q , / +.| d = =.n.n.n.n.n.n.n.n.n.n.<.b b | | 9.n.n.n.n.n.e.",
"                        e.n.n.n.n.n.5.i = d j.n.n.n.n.n.n.n.n.n.f.q , R +.+.+.| i = =.n.n.n.n.n.n.n.n.n.n.<.b b Q 9.n.n.n.n.n.e.",
"                        e.n.n.n.n.n.9.t q f.n.n.n.n.n.n.n.n.n.f.8 = u b b b b b d , o =.n.n.n.n.n.n.n.n.n.n.<.b 6 2.n.n.n.n.n.e.",
"                        e.n.n.n.n.n.5.b f.n.n.n.n.n.n.n.n.n.f.q , H X.| | | | | | | i = =.n.n.n.n.n.n.n.n.n.n.<.i 5.n.n.n.n.n.e.",
"                        e.n.n.n.n.n.0.s.n.n.n.n.n.n.n.n.n.f.q , / +.+.+.+.+.+.+.+.+.| d = =.n.n.n.n.n.n.n.n.n.n.=.2.n.n.n.n.n.e.",
"                        e.n.n.n.n.n.i.v.n.n.n.n.n.n.n.n.f.q , / +.+.+.+.+.+.+.+.+.+.+.| d = =.n.n.n.n.n.n.n.n.n.n.r.n.n.n.n.n.e.",
"                        e.n.n.n.n.n.i.c.n.n.n.n.n.n.n.f.q , / +.+.+.+.+.+.+.+.+.+.+.+.+.| d = =.n.n.n.n.n.n.n.n.n.i.n.n.n.n.n.e.",
"                        e.n.n.n.n.n.i.c.n.n.n.n.n.n.f.q , / +.+.+.+.+.+.+.+.+.+.+.+.+.+.+.X.d = =.n.n.n.n.n.n.n.n.i.n.n.n.n.n.e.",
"                        e.n.n.n.n.n.i.c.n.n.n.n.n.f.q = b / / / / / / / / / / / / / / / / / H 6 = =.n.n.n.n.n.n.n.i.n.n.n.n.n.e.",
"                        e.n.n.n.n.n.r.x.c.c.c.v.s.8 = t d d d d d d d d d d d d d d d d d d d i , o $.n.n.n.n.n.n.r.n.n.n.n.n.e.",
"                        e.n.n.n.n.n.<.r.i.i.i.i.0.<.2.5.5.5.5.5.5.5.5.5.5.5.5.5.5.5.5.5.5.5.5.9.5.<.<.r.i.i.i.i.r.<.n.n.n.n.n.r.",
"                        e.n.n.n.n.n.n.n.n.n.n.n.n.n.n.n.n.n.n.n.n.n.n.n.n.n.n.n.n.n.n.n.n.n.n.n.n.n.n.n.n.n.n.n.n.n.n.n.n.n.n.r.",
"                        e.n.n.n.n.n.n.n.n.n.n.n.n.n.n.n.n.n.n.n.n.n.n.n.n.n.n.n.n.n.n.n.n.n.n.n.n.n.n.n.n.n.n.n.n.n.n.n.n.n.n.r.",
"                        e.n.n.n.n.n.n.n.n.n.n.n.n.n.n.n.n.n.n.n.n.n.n.n.n.n.n.n.n.n.n.n.n.n.n.n.n.n.n.n.n.n.n.n.n.n.n.n.n.n.n.r.",
"                        e.n.n.n.n.n.n.n.n.n.n.n.n.n.n.n.n.n.n.n.n.n.n.n.n.n.n.n.n.n.n.n.n.n.n.n.n.n.n.n.n.n.n.n.n.n.n.n.n.n.n.r.",
"                        r.n.n.n.n.n.n.n.n.n.n.n.n.n.n.n.n.n.n.n.n.n.n.n.n.n.n.n.n.n.n.n.n.n.n.n.n.n.n.n.n.n.n.n.n.n.n.n.n.n.n.r.",
"                        T r.e.e.e.e.e.e.e.e.e.e.e.e.e.e.e.e.e.e.e.e.e.e.e.e.e.e.e.e.e.e.e.e.e.e.e.e.e.e.e.e.e.e.e.e.e.e.e.e.r.T ",
"                                                                                                                                ",
"                                                                                                                                ",
"                                                                                                                                ",
"                                                                                                                                ",
"                                                                                                                                ",
"                                                                                                                                ",
"                                                                                                                                ",
"                                                                                                                                ",
"                                                                                                                                ",
"                                                                                                                                ",
"                                                                                                                                ",
"                                                                                                                                "
};
