/* XPM */
static char *ed86700214e44cfb91da8f6fe6452188tKrU19iVdzPsvPAw[] = {
/* columns rows colors chars-per-pixel */
"52 52 208 2 ",
"   c None",
".  c #754A1C",
"X  c #764B1E",
"o  c #794D1E",
"O  c #794D1F",
"+  c #794E1E",
"@  c #7A4E1E",
"#  c #7A4F1E",
"$  c #7B4F1E",
"%  c #7A4E1F",
"&  c #7B4F1F",
"*  c #7C501E",
"=  c #7C501F",
"-  c #7E511F",
";  c #7E521F",
":  c #7F521F",
">  c #7B4F20",
",  c #7E5120",
"<  c #7D5220",
"1  c #7E5220",
"2  c #7F5220",
"3  c #7F5221",
"4  c #7F5321",
"5  c #80531F",
"6  c #815420",
"7  c #825520",
"8  c #835520",
"9  c #835620",
"0  c #805422",
"q  c #815423",
"w  c #815523",
"e  c #825523",
"r  c #845520",
"t  c #845620",
"y  c #845720",
"u  c #845621",
"i  c #845723",
"p  c #815524",
"a  c #835724",
"s  c #845724",
"d  c #855821",
"f  c #865821",
"g  c #865921",
"h  c #875921",
"j  c #875A21",
"k  c #845824",
"l  c #855824",
"z  c #875924",
"x  c #875925",
"c  c #875A24",
"v  c #885921",
"b  c #885A21",
"n  c #895A21",
"m  c #895B21",
"M  c #885A22",
"N  c #895A22",
"B  c #8A5B22",
"V  c #895C22",
"C  c #8A5C22",
"Z  c #8B5D22",
"A  c #8C5D22",
"S  c #8C5D23",
"D  c #8C5E22",
"F  c #8D5E22",
"G  c #8D5E23",
"H  c #8D5F23",
"J  c #8E5F22",
"K  c #8E5E23",
"L  c #8E5F23",
"P  c #8F5F23",
"I  c #885B26",
"U  c #8A5D25",
"Y  c #8D5F25",
"T  c #8C5F26",
"R  c #8E5F26",
"E  c #8E6023",
"W  c #8F6023",
"Q  c #8F6123",
"!  c #8E6026",
"~  c #8F6126",
"^  c #8E6129",
"/  c #8F6129",
"(  c #8F622A",
")  c #906023",
"_  c #906123",
"`  c #916123",
"'  c #906124",
"]  c #936224",
"[  c #926324",
"{  c #936324",
"}  c #906227",
"|  c #916227",
" . c #936424",
".. c #946424",
"X. c #956525",
"o. c #966525",
"O. c #966624",
"+. c #966625",
"@. c #976625",
"#. c #976725",
"$. c #946527",
"%. c #986725",
"&. c #986825",
"*. c #996826",
"=. c #996926",
"-. c #9A6826",
";. c #9A6926",
":. c #9B6926",
">. c #9B6A26",
",. c #906229",
"<. c #916229",
"1. c #906329",
"2. c #90622A",
"3. c #956628",
"4. c #966628",
"5. c #966728",
"6. c #94662A",
"7. c #95672B",
"8. c #98692B",
"9. c #99692B",
"0. c #996A2B",
"q. c #98692D",
"w. c #996A2C",
"e. c #996B2C",
"r. c #9A6B2C",
"t. c #9B6C2E",
"y. c #9B6C2F",
"u. c #9C6C2C",
"i. c #9C6D2C",
"p. c #9D6D2C",
"a. c #9D6E30",
"s. c #9E6E30",
"d. c #9E6F30",
"f. c #9F7030",
"g. c #A07131",
"h. c #A17131",
"j. c #A17231",
"k. c #A47533",
"l. c #A67633",
"z. c #A57634",
"x. c #A77734",
"c. c #A87835",
"v. c #AA7A35",
"b. c #AD7C36",
"n. c #AD7C37",
"m. c #AD7D37",
"M. c #AE7D37",
"N. c #AF7F37",
"B. c #AE7D38",
"V. c #AF7E38",
"C. c #AF7F38",
"Z. c #B07E38",
"A. c #B07F38",
"S. c #B18038",
"D. c #B28038",
"F. c #B28138",
"G. c #B38138",
"H. c #B38139",
"J. c #B38238",
"K. c #B38239",
"L. c #B3823A",
"P. c #B4823A",
"I. c #B4833A",
"U. c #B5833A",
"Y. c #B5843B",
"T. c #B6843B",
"R. c #B6853B",
"E. c #B7853B",
"W. c #B7863B",
"Q. c #BB893D",
"!. c #BC893D",
"~. c #BC8A3D",
"^. c #BD8A3D",
"/. c #BD8B3D",
"(. c #BC8A3E",
"). c #BD8A3E",
"_. c #BD8B3E",
"`. c #BE8B3E",
"'. c #BE8C3E",
"]. c #BF8D3F",
"[. c #C08D3F",
"{. c #C18E40",
"}. c #C18F40",
"|. c #C28F40",
" X c #C29040",
".X c #C39040",
"XX c #C59241",
"oX c #C59242",
"OX c #C69242",
"+X c #C69342",
"@X c #C79342",
"#X c #C79442",
"$X c #C89543",
"%X c #C99643",
"&X c #CA9643",
"*X c #CA9644",
"=X c #CA9744",
"-X c #CB9744",
";X c #CB9844",
":X c #CC9844",
">X c #CD9945",
",X c #CE9945",
"<X c #CE9A45",
"1X c #CF9A45",
"2X c #CE9A46",
"3X c #CF9A46",
"4X c #CF9B46",
"5X c #D09B46",
/* pixels */
"                    d.B.M.M.M.M.M.M.M.M.M.M.M.M.M.M.M.M.M.M.M.M.M.M.M.M.M.M.M.M.M.M.M.M.M.M.M.M.M.M.M.q.",
"                    T.1X1X1X1X1X1X1X1X1X1X1X1X1X1X1X1X1X1X1X1X1X1X1X1X1X1X1X1X1X1X1X1X1X1X1X1X1X1X1X1XM.",
"                    T.1X1X1X1X1X1X1X1X1X1X1X1X1X1X1X1X1X1X1X1X1X1X1X1X1X1X1X1X1X1X1X1X1X1X1X1X1X1X1X1XM.",
"                    T.1X1X1X1X1X1X1X1X1X1X1X1X1X1X1X1X1X1X1X1X1X1X1X1X1X1X1X1X1X1X1X1X1X1X1X1X1X1X1X1XM.",
"                    T.1X1X1X*XXXXXXXXXXXXXXXXXXXXXXXXXXXXXXXXXXXXXXXXXXXXXXXXXXXXXXXXXXXXXXXXX1X1X1X1XM.",
"                    T.1X1X1XQ.v.L.L.P.k.^ ^ 1.1.1.1.1.1.^ ^ ^ ^ 1.1.1.1.1.1.1.1.^ y.A.P.P.L.x.XX1X1X1XM.",
"                    T.1X1X1X^.Q.1X1X1X].1.* * j j j j j j j j j j j j j j j j t z M.*X1X1X1XL.XX1X1X1XM.",
"                    T.1X1X1X^.^.1X1X1X1X|.w.j Q *.*.*.*.*.*.*.*.*.*.*.*.*.*.X.3.L.;X1X1X1X1XP.XX1X1X1XM.",
"                    T.1X1X1X^.^.1X1X1X1X1X Xw.j _ *.*.*.*.*.*.*.*.*.*.*.*.%.3.L.;X1X1X1X1X1XP.XX1X1X1XM.",
"                    T.1X1X1X^.^.1X1X1X1X1X1X|.w.j _ *.*.*.*.*.*.*.*.*.*.X.3.L.1X1X1X1X1X1X*XA.XX1X1X1XM.",
"                    T.1X1X1X^.v.#X1X1X1X1X1X1X|.w.j _ *.*.*.*.*.*.*.*.X.3.L.;X1X1X1X1X1X1XM.y.XX1X1X1Xn.",
"                    T.1X1X1XQ.I d.&X1X1X1X1X1X1X|.w.j b G G G G G G Z | L.;X1X1X1X1X1X1XA.7 ^ @X1X1X1XM.",
"                    T.1X1X1X^.z X f.&X1X1X1X1X1X1X|.w.j Z X.X.X.X.| | L.;X1X1X1X1X1X;XB.z 5 9.&X1X1X1XM.",
"                    T.1X1X1X^.! X O j.&X1X1X1X1X1X1X Xw.b _ *.*.X.3.L.;X1X1X1X1X1X;XB.7 t | p.@X1X1X1XM.",
"                    T.1X1X1X^.! O * 1 j.&X1X1X1X1X1X1X|.w.j _ X.3.L.;X1X1X1X1X1X;XB.z 7 X.X.p.XX1X1X1XM.",
"                    T.1X1X1X^.! O Z b 1 j.&X1X1X1X1X1X1X|.w.j | L.;X1X1X1X1X1X1XA.z 7 X.*.X.p.XX1X1X1Xn.",
"                    T.1X1X1X^.! O G *.b 1 j.*X1X1X1X1X1X1X[.3.A.;X1X1X1X1X1X;XB.z 7 X.*.*.X.p.XX1X1X1XM.",
"                    T.1X1X1X^.! O j | _ 7 > j.&X1X1X1X1X*XP.T.1X1X1X1X1X1X;XB.7 * G | | | Q w.XX1X1X1XM.",
"                    T.1X1X1X^.! O j _ _ _ j 1 j.&X1X1X&XL.T.1X1X1X1X1X1X;XB.7 7 G _ _ _ _ G 9.@X1X1X1XM.",
"                    T.1X1X1X^.! O G *.*.*.*.b 1 j.&X*XL.T.*X1X1X1X1X1X1XB.z 7 X.*.*.*.*.*.%.p.@X1X1X1XM.",
"                    T.1X1X1X^.! O G *.*.*.*.%.b 1 d.B.T.*X1X1X1X1X1X1XA.z 7 X.*.*.*.*.*.*.X.p.@X1X1X1Xn.",
"                    T.1X1X1X^.! O G *.*.*.*.*.*.j z L.;X1X1X1X1X1X1XT.3.7 G *.*.*.*.*.*.*.X.p.@X1X1X1Xn.",
"                    T.1X1X1X^.! O G *.*.>.*.*.*.3.L.;X1X1X1X1X1X*XT.P.[.w.j Q *.*.*.>.>.*.%.p.XX1X1X1Xn.",
"                    T.1X1X1X^.! O b X.X.X.X.| 3.L.;X1X1X1X1X1X*XT.L.*X1X|.w.j Q X.X.X.X.X._ w.XX1X1X1Xn.",
"                    T.1X1X1X^.! O j G G G Z R L.;X1X1X1X1X1X;XT.L.&X1X1X1X|.w.j j G Q G Q G 9.XX1X1X1XM.",
"                    T.1X1X1X^.! O G *.*.X. .L.;X1X1X1X1X1X;XL.B.*X1X1X1X1X1X Xw.j Q %.*.*.X.p.XX1X1X1Xn.",
"                    T.1X1X1X^.! O G *.%.3.L.;X1X1X1X1X1X;XB.p d.&X1X1X1X1X1X1X Xw.j _ *.*.X.p.XX1X1X1Xn.",
"                    T.1X1X1X^.! O G X.3.L.;X1X1X1X1X1X1XB.a O 1 j.&X1X1X1X1X1X1X|.w.j _ *.X.p.XX1X1X1XM.",
"                    T.1X1X1X^.! O Z 3.L.;X1X1X1X1X1X1XA.z t | b 1 j.&X1X1X1X1X1X1X|.w.b ! X.p.XX1X1X1XM.",
"                    T.1X1X1X^.! O U L.;X1X1X1X1X1X1XB.p 7  .*.X.b 1 j.*X1X1X1X1X1X1X|.w.j G p.#X1X1X1XM.",
"                    T.1X1X1X^.R t A.1X1X1X1X1X1X1XA.7 * b G G G Z * O f.&X1X1X1X1X1X1X Xw.7 6.XX1X1X1XM.",
"                    T.1X1X1X^.3.M.1X1X1X1X1X1X1XA.z 7 X.%.X.X.X.X.X.b 1 j.&X1X1X1X1X1X1X|.8.3.XX1X1X1XM.",
"                    T.1X1X1X^.B.&X1X1X1X1X1X;XB.z t X.*.*.*.*.*.*.*.*.b 1 j.&X1X1X1X1X1X1X[.k.XX1X1X1XM.",
"                    T.1X1X1X].T.1X1X1X1X1X;XB.z t X.*.*.*.*.*.*.*.*.*.*.b 1 j.&X1X1X1X1X1X1XP.XX1X1X1XM.",
"                    T.1X1X1X].T.1X1X1X1X;XB.7 7 X.*.*.*.*.*.*.*.*.*.*.*.%.b 1 j.&X1X1X1X1X1XP.XX1X1X1XM.",
"                    T.1X1X1X^.P.*X1X1X&XM.4 O b G G G G G G G G G G G G G G * O d.&X1X1X1X1XL.XX1X1X1XM.",
"                    T.1X1X1XQ.x.P.T.T.B.1.s R ! ! ! ! ! ! ! ! ! ! ! ! ! ! ! ! z z v.^.Q.Q.Q.v.XX1X1X1XM.",
"                    T.1X1X1XXXQ.^.^.^.Q.Q.^.^.^.^.^.^.^.^.^.^.^.^.^.^.^.^.^.^.^.Q.Q.^.^.^.^.Q.*X1X1X1XM.",
"                    T.1X1X1X1X1X1X1X1X1X1X1X1X1X1X1X1X1X1X1X1X1X1X1X1X1X1X1X1X1X1X1X1X1X1X1X1X1X1X1X1XM.",
"                    T.1X1X1X1X1X1X1X1X1X1X1X1X1X1X1X1X1X1X1X1X1X1X1X1X1X1X1X1X1X1X1X1X1X1X1X1X1X1X1X1XM.",
"                    T.5X1X1X1X1X1X1X1X1X1X1X1X1X1X1X1X1X1X1X1X1X1X1X1X1X1X1X1X1X1X1X1X1X1X1X1X1X1X1X1XB.",
"                    k.T.T.T.T.T.T.T.T.T.T.T.T.T.T.T.T.T.T.T.T.T.T.T.T.T.T.T.T.T.T.T.T.T.T.T.T.T.T.T.T.d.",
"                                                                                                        ",
"                                                                                                        ",
"                                                                                                        ",
"                                                                                                        ",
"                                                                                                        ",
"                                                                                                        ",
"                                                                                                        ",
"                                                                                                        ",
"                                                                                                        ",
"                                                                                                        "
};
