/* XPM */
static char *e7ffea02e4e54bb094da026ce323cb9eB0mbhJPAnDriMyd7[] = {
/* columns rows colors chars-per-pixel */
"52 52 6 1 ",
"  c #2C2929",
". c #3F3F3F",
"X c #4E4848",
"o c gray38",
"O c #777777",
"+ c gray57",
/* pixels */
"oooooooooooooooooooooooooooooooooooooooooooooooooooo",
"oooooooooooooooooooooooooooooooooooooooooooooooooooo",
"oooooooooooooooooooooooooooooooooooooooooooooooooooo",
"oooooooooooooooooooooooooooooooooooooooooooooooooooo",
"oooooooooooooooooooooooooooooooooooooooooooooooooooo",
"oooooooooooooooooooooooooooooooooooooooooooooooooooo",
"oooooooooooooooooooooooooooooooooooooooooooooooooooo",
"oooooooooooooooooooooooooooooooooooooooooooooooooooo",
"oooooooooooo+++++++++++++++++++++++++++ooooooooooooo",
"ooooooooooo+++++++++++++++++++++++++++++oooooooooooo",
"oooooooooo+++++++++++++++++++++++++++++++ooooooooooo",
"ooooooooo+++++++++++++++++++++++++++++++++oooooooooo",
"oooooooo+++++++++++++++++++++++++++++++++++ooooooooo",
"oooooooo++++++++++++++++++++++++++++++++++++oooooooo",
"oooooooo++++++++++++++++++++++++++++++++++++oooooooo",
"oooooooo++++++++++++++++++++++++++++++++++++oooooooo",
"oooooooo++++++++++++++++++++++++++++++++++++oooooooo",
"oooooooo+++++++++++++++      +++++++++++++++oooooooo",
"oooooooo+++++++++++++  ......  +++++++++++++oooooooo",
"oooooooo++++++++++++ .......... ++++++++++++oooooooo",
"oooooooo+++++++++++ ............ +++++++++++oooooooo",
"oooooooo++++++++++ .............. ++++++++++oooooooo",
"oooooooo++++++++++ .............. ++++++++++oooooooo",
"oooooooo+++++++++ .. OOOOOOOOOO .. +++++++++oooooooo",
"oooooooo+++++++++ .. XXXXXXXXXX .. +++++++++oooooooo",
"oooooooo+++++++++ .. XXXXXXXXXX .. +++++++++oooooooo",
"oooooooo+++++++++ .. XXXXXXXXXX .. +++++++++oooooooo",
"oooooooo+++++++++ .. XXXXXXXXXX .. +++++++++oooooooo",
"oooooooo+++++++++ .. OOOOOOOOOO .. +++++++++oooooooo",
"oooooooo++++++++++ .............. ++++++++++oooooooo",
"oooooooo++++++++++ .............. ++++++++++oooooooo",
"oooooooo+++++++++++ ............ +++++++++++oooooooo",
"oooooooo++++++++++++ .......... ++++++++++++oooooooo",
"oooooooo+++++++++++++  ......  +++++++++++++oooooooo",
"oooooooo+++++++++++++++      +++++++++++++++oooooooo",
"oooooooo++++++++++++++++++++++++++++++++++++oooooooo",
"oooooooo++++++++++++++++++++++++++++++++++++oooooooo",
"oooooooo++++++++++++++++++++++++++++++++++++oooooooo",
"oooooooo++++++++++++++++++++++++++++++++++++oooooooo",
"oooooooo+++++++++++++++++++++++++++++++++++ooooooooo",
"ooooooooo+++++++++++++++++++++++++++++++++oooooooooo",
"oooooooooo+++++++++++++++++++++++++++++++ooooooooooo",
"ooooooooooo+++++++++++++++++++++++++++++oooooooooooo",
"oooooooooooo+++++++++++++++++++++++++++ooooooooooooo",
"ooooooooooooo+++++++++++++++++++++++++oooooooooooooo",
"oooooooooooooooooooooooooooooooooooooooooooooooooooo",
"oooooooooooooooooooooooooooooooooooooooooooooooooooo",
"oooooooooooooooooooooooooooooooooooooooooooooooooooo",
"oooooooooooooooooooooooooooooooooooooooooooooooooooo",
"oooooooooooooooooooooooooooooooooooooooooooooooooooo",
"oooooooooooooooooooooooooooooooooooooooooooooooooooo",
"oooooooooooooooooooooooooooooooooooooooooooooooooooo"
};
