/* XPM */
static char *e13bd882dd274806b2df4e499c8de8dbd7z1Bc505mSa4mjv[] = {
/* columns rows colors chars-per-pixel */
"52 52 256 2 ",
"   c black",
".  c #010101",
"X  c #020202",
"o  c gray1",
"O  c #040404",
"+  c gray2",
"@  c #060606",
"#  c #070707",
"$  c gray3",
"%  c #090909",
"&  c gray4",
"*  c #0B0B0B",
"=  c #0C0C0C",
"-  c gray5",
";  c #0E0E0E",
":  c gray6",
">  c #101010",
",  c #111111",
"<  c gray7",
"1  c #131313",
"2  c gray8",
"3  c #151515",
"4  c #161616",
"5  c gray9",
"6  c #181818",
"7  c #191919",
"8  c gray10",
"9  c #1B1B1B",
"0  c gray11",
"q  c #1D1D1D",
"w  c #1E1E1E",
"e  c gray12",
"r  c #202020",
"t  c gray13",
"y  c #222222",
"u  c #232323",
"i  c gray14",
"p  c #252525",
"a  c gray15",
"s  c #272727",
"d  c #282828",
"f  c gray16",
"g  c #2A2A2A",
"h  c gray17",
"j  c #2C2C2C",
"k  c #2D2D2D",
"l  c gray18",
"z  c #2F2F2F",
"x  c gray19",
"c  c #313131",
"v  c #323232",
"b  c gray20",
"n  c #343434",
"m  c #353535",
"M  c gray21",
"N  c #373737",
"B  c gray22",
"V  c #393939",
"C  c #3A3A3A",
"Z  c gray23",
"A  c #3C3C3C",
"S  c gray24",
"D  c #3E3E3E",
"F  c #3F3F3F",
"G  c gray25",
"H  c #414141",
"J  c gray26",
"K  c #434343",
"L  c #444444",
"P  c gray27",
"I  c #464646",
"U  c gray28",
"Y  c #484848",
"T  c #494949",
"R  c gray29",
"E  c #4B4B4B",
"W  c #4C4C4C",
"Q  c gray30",
"!  c #4E4E4E",
"~  c gray31",
"^  c #505050",
"/  c #515151",
"(  c gray32",
")  c #535353",
"_  c gray33",
"`  c #555555",
"'  c #565656",
"]  c gray34",
"[  c #585858",
"{  c gray35",
"}  c #5A5A5A",
"|  c #5B5B5B",
" . c gray36",
".. c #5D5D5D",
"X. c gray37",
"o. c #5F5F5F",
"O. c #606060",
"+. c gray38",
"@. c #626262",
"#. c gray39",
"$. c #646464",
"%. c #656565",
"&. c gray40",
"*. c #676767",
"=. c #686868",
"-. c DimGray",
";. c #6A6A6A",
":. c gray42",
">. c #6C6C6C",
",. c #6D6D6D",
"<. c gray43",
"1. c #6F6F6F",
"2. c gray44",
"3. c #717171",
"4. c #727272",
"5. c gray45",
"6. c #747474",
"7. c gray46",
"8. c #767676",
"9. c #777777",
"0. c gray47",
"q. c #797979",
"w. c gray48",
"e. c #7B7B7B",
"r. c #7C7C7C",
"t. c gray49",
"y. c #7E7E7E",
"u. c gray50",
"i. c #808080",
"p. c #818181",
"a. c gray51",
"s. c #838383",
"d. c #848484",
"f. c gray52",
"g. c #868686",
"h. c gray53",
"j. c #888888",
"k. c #898989",
"l. c gray54",
"z. c #8B8B8B",
"x. c gray55",
"c. c #8D8D8D",
"v. c #8E8E8E",
"b. c gray56",
"n. c #909090",
"m. c gray57",
"M. c #929292",
"N. c #939393",
"B. c gray58",
"V. c #959595",
"C. c gray59",
"Z. c #979797",
"A. c #989898",
"S. c gray60",
"D. c #9A9A9A",
"F. c #9B9B9B",
"G. c gray61",
"H. c #9D9D9D",
"J. c gray62",
"K. c #9F9F9F",
"L. c #A0A0A0",
"P. c gray63",
"I. c #A2A2A2",
"U. c gray64",
"Y. c #A4A4A4",
"T. c #A5A5A5",
"R. c gray65",
"E. c #A7A7A7",
"W. c gray66",
"Q. c #A9A9A9",
"!. c #AAAAAA",
"~. c gray67",
"^. c #ACACAC",
"/. c gray68",
"(. c #AEAEAE",
"). c #AFAFAF",
"_. c gray69",
"`. c #B1B1B1",
"'. c #B2B2B2",
"]. c gray70",
"[. c #B4B4B4",
"{. c gray71",
"}. c #B6B6B6",
"|. c #B7B7B7",
" X c gray72",
".X c #B9B9B9",
"XX c gray73",
"oX c #BBBBBB",
"OX c #BCBCBC",
"+X c gray74",
"@X c gray",
"#X c gray75",
"$X c #C0C0C0",
"%X c #C1C1C1",
"&X c gray76",
"*X c #C3C3C3",
"=X c gray77",
"-X c #C5C5C5",
";X c #C6C6C6",
":X c gray78",
">X c #C8C8C8",
",X c gray79",
"<X c #CACACA",
"1X c #CBCBCB",
"2X c gray80",
"3X c #CDCDCD",
"4X c #CECECE",
"5X c gray81",
"6X c #D0D0D0",
"7X c gray82",
"8X c #D2D2D2",
"9X c LightGray",
"0X c gray83",
"qX c #D5D5D5",
"wX c gray84",
"eX c #D7D7D7",
"rX c #D8D8D8",
"tX c gray85",
"yX c #DADADA",
"uX c gray86",
"iX c gainsboro",
"pX c #DDDDDD",
"aX c gray87",
"sX c #DFDFDF",
"dX c gray88",
"fX c #E1E1E1",
"gX c #E2E2E2",
"hX c gray89",
"jX c #E4E4E4",
"kX c gray90",
"lX c #E6E6E6",
"zX c #E7E7E7",
"xX c gray91",
"cX c #E9E9E9",
"vX c #EAEAEA",
"bX c gray92",
"nX c #ECECEC",
"mX c gray93",
"MX c #EEEEEE",
"NX c #EFEFEF",
"BX c gray94",
"VX c #F1F1F1",
"CX c gray95",
"ZX c #F3F3F3",
"AX c #F4F4F4",
"SX c gray96",
"DX c #F6F6F6",
"FX c gray97",
"GX c #F8F8F8",
"HX c #F9F9F9",
"JX c gray98",
"KX c #FBFBFB",
"LX c gray99",
"PX c #FDFDFD",
"IX c #FEFEFE",
"UX c white",
/* pixels */
"/ / / ) ` ] ' ` _ ( ~ ( _ ( / ~ R T E R R Q ! ! ! ^ / / Q ! ~ ^ ( ) ( / ( / / ' [ [ ` ) ( / / / / / ^ ~ ",
"^ / ( _ ' ] ] ' ' ` _ _ _ ) ( ^ Q E W E E ! ~ ~ ~ / ) ( ~ / ^ ( _ _ ( / / / ) ] { } ] ` _ _ ( ( / / ~ ~ ",
"! ^ ) ' [ { [ [ { { [ ] ' ' _ ( / ^ ~ ~ ! ^ ( ( ) ` ' _ ) / _ ' ] ' _ / ( ( _ [ | ..| [ ' ` _ ) ( ^ ~ ! ",
"! ^ ) ` ] { { [ } { [ { } { [ ' ' ` _ ` ] { } { } |  .} ] ' ] { { [ ` _ _ _ ` [ | | { ] ' ` _ ) ( / ! W ",
"~ ^ ) _ ' { { { { } { | .. ...| | } |  .X.o.O.+.@.#.#.O... ...X... .} { | } } .... .{ ' ' _ _ _ _ ( ~ Q ",
"/ ( ) ) ` ] }  .| } } X.O.o.o.O.O.O.+.@.#.$.$.%.=.;.*.=.*.&.&.&.$.+.+.@.@.#.$.%.$.@...{ ` _ _ ` _ / ^ ^ ",
"~ ^ ( ( _ [  .X... ...O.@.O.+.#.#.$.%.*.*.*.*.-.>.<.,.,.,.>.>.>.-.*.*.=.-.-.;.:.:.=.%.+...{ ] _ ) / ^ / ",
"Q ~ / ( ` [ ..O.X.X.o.@.#.@.$.*.=.*.-.>.,.;.-.>.1.2.3.4.3.2.1.1.<.>.>.,.,.<.<.1.1.<.:.*.$.o.} ' _ / ( ( ",
"! ~ ( ( _ '  .O.O.O.+.#.$.$.*.:.:.:.,.1.2.<.1.2.3.6.7.7.7.5.4.3.3.3.2.2.3.3.3.4.3.1.>.=.$.X.{ { [ ' ` _ ",
"~ / ) _ ` ] ..@.$.$.%.&.&.-.>.1.2.1.1.4.6.6.6.6.8.8.0.0.9.8.7.7.7.7.6.5.6.5.6.5.3.<.>.=.#...{ | | { ` ( ",
"( ) _ ] { | O.%.=.;.;.-.;.>.2.5.6.5.4.7.0.9.0.q.q.w.w.w.w.q.q.q.w.q.0.9.9.8.7.6.3.<.>.=.#.o. . . .{ ) ! ",
"` ' { | ..+.%.-.:.1.1.1.<.1.3.6.7.7.7.0.e.e.r.e.r.t.y.y.r.t.y.t.r.e.e.e.r.e.q.8.5.2.,.:.*.$.+.o.| ] ^ W ",
"' { ..o.@.%.=.:.1.3.5.5.4.4.4.5.7.9.9.e.t.y.y.y.y.i.a.p.i.p.p.i.y.r.t.y.i.y.r.0.7.5.3.<.;.*.$.+.| ' ^ Q ",
"] | +.$.*.*.-.>.1.5.5.6.6.6.5.5.8.w.r.y.i.a.s.s.a.s.d.d.d.f.d.p.u.y.u.y.u.y.r.q.9.7.4.2.,.-.%.#.X.{ ) ^ ",
"] | @.%.=.-.;.>.3.6.5.7.7.7.8.9.w.t.i.a.d.f.g.g.g.g.h.h.g.h.f.s.i.i.p.p.i.u.e.w.9.9.6.3.<.:.*.$.+. .' ) ",
"] | @.%.*.-.>.2.6.8.7.8.8.9.q.r.u.p.s.f.g.j.j.j.l.l.k.k.k.j.g.d.s.s.d.s.p.y.r.w.q.0.7.4.1.,.:.=.#...{ ' ",
"[  .@.&.=.-.>.2.6.8.8.0.0.q.w.t.a.f.g.h.j.k.l.l.z.z.l.l.z.l.j.g.f.s.f.d.a.u.t.r.w.0.6.3.1.<.,.-.%.o.| { ",
"{  .O.&.=.=.:.1.6.7.8.0.e.w.r.y.p.g.j.j.k.l.x.c.x.x.z.z.x.z.k.j.h.g.f.f.s.i.t.r.w.0.7.5.2.1.,.;.%.O. .| ",
"| | ..#.*.*.;.1.7.9.8.0.w.e.y.u.a.g.j.k.k.z.x.c.x.x.z.x.c.x.l.k.j.h.g.f.a.u.t.r.q.0.7.6.3.1.,.-.%.O. .} ",
" .| ..#.=.-.,.3.9.q.0.0.w.t.i.s.d.g.j.k.x.v.b.v.v.v.c.c.c.x.l.k.j.j.h.g.s.u.r.e.w.q.0.8.4.2.,.;.&.@.X. .",
"| | O.%.-.>.<.4.q.w.q.0.w.u.s.g.g.g.h.k.z.b.n.b.n.n.b.v.x.x.z.l.k.k.k.h.d.i.r.e.e.w.q.9.5.2.,.;.*.$.O.X.",
" .o.$.=.:.,.2.5.0.q.0.q.r.i.d.h.g.g.h.h.k.v.m.b.n.n.n.b.c.c.x.z.z.z.x.j.d.i.t.r.e.q.0.8.5.2.,.:.-.%.+.X.",
"X.+.&.-.:.<.3.6.8.8.7.9.r.p.f.g.g.g.h.h.k.c.b.n.m.m.M.m.n.b.v.c.c.x.z.j.s.i.y.t.e.q.0.8.5.2.<.,.-.&.+.X.",
"o.+.%.-.>.1.5.8.8.7.5.8.e.a.f.f.f.f.g.j.z.c.b.M.m.M.N.M.M.n.b.n.v.c.z.k.d.p.u.y.r.q.0.8.5.3.1.,.;.*.@.o.",
"o.@.*.:.<.2.6.0.0.9.9.w.i.s.g.h.h.h.h.j.z.c.b.m.m.m.B.N.M.n.b.b.v.c.l.g.d.s.a.u.y.r.q.9.7.4.2.<.;.&.+.o.",
"X.@.-.>.<.3.7.q.q.0.0.t.a.d.g.j.j.j.h.h.l.v.n.m.n.m.m.N.M.n.b.v.v.x.k.g.f.d.s.i.y.t.w.9.8.5.2.<.;.%.+.o.",
"..+.=.>.1.3.6.9.9.8.8.w.u.s.h.k.k.h.f.h.k.n.m.m.n.m.m.M.M.m.b.v.x.z.k.j.h.f.s.u.r.e.w.9.8.5.1.,.;.%.O.X.",
"X.+.*.:.,.2.5.9.8.6.7.0.t.s.h.j.j.g.f.h.z.b.m.m.m.n.m.M.M.m.n.c.x.l.l.j.g.d.p.y.e.q.q.0.8.4.,.>.-.%.O.X.",
"o.@.*.-.:.,.4.9.9.8.8.0.t.a.g.h.g.g.g.k.x.b.n.m.M.M.M.m.M.m.b.c.x.l.k.h.f.a.u.r.w.0.0.9.7.2.:.;.=.$.O.X.",
"X.+.%.*.-.>.4.9.q.q.0.w.t.a.d.f.f.f.j.l.x.v.n.n.m.M.M.M.m.n.v.x.z.l.j.f.a.u.t.e.q.9.8.6.4.<.-.*.%.@.X...",
"..o.@.$.*.;.1.7.w.e.q.w.r.u.p.a.d.g.k.z.x.v.b.n.n.N.m.m.n.v.c.l.k.j.g.d.a.u.r.w.q.9.7.4.2.,.-.&.@.X. . .",
"}  .X.@.&.*.>.3.0.q.9.0.e.r.y.p.f.k.z.x.x.c.v.m.m.m.n.b.b.v.x.j.g.f.d.s.s.a.r.q.8.8.8.7.2.>.-.$.o.} [ { ",
"{ |  .+.&.&.;.3.6.8.9.q.w.e.y.p.g.l.x.x.z.x.v.b.n.n.n.n.v.x.l.h.g.f.f.d.s.i.r.q.9.8.9.7.<.;.*.#...] ' ] ",
"{ | X.@.%.&.:.1.4.6.9.q.e.r.y.a.f.k.x.z.l.l.z.x.c.b.n.n.v.z.j.g.f.f.f.g.s.y.w.0.0.0.0.7.,.*.%.#...] ' ] ",
"[ | o.@.%.*.>.2.5.7.8.0.e.r.u.p.d.j.k.h.h.k.l.l.x.x.c.c.v.z.h.s.p.i.p.a.p.u.e.8.8.q.9.6.<.=.$.#.O.| [ ] ",
"' } O.#.&.=.:.1.5.7.8.9.q.e.r.t.u.d.f.f.f.j.j.h.j.h.l.l.h.h.f.i.y.t.y.u.y.t.w.8.7.9.7.3.,.=.#.+.o...[ _ ",
") [ o.#.*.=.-.>.3.5.7.8.9.0.0.0.e.y.i.p.s.d.g.f.d.f.g.d.s.p.u.t.r.r.r.r.r.r.q.8.7.4.4.1.:.*.+.o...| ` / ",
"_ [ o.$.*.*.=.:.<.3.5.6.7.5.6.7.9.q.e.y.i.a.a.p.a.s.d.s.i.y.r.r.e.e.e.e.q.0.9.8.7.4.3.1.-.%.+.o. .[ ) ~ ",
"` [ ..+.$.%.=.:.,.1.3.4.4.3.4.6.7.8.9.w.t.u.u.u.i.a.a.i.y.r.e.e.e.w.w.q.9.8.8.8.6.4.3.<.*.@.O...} ' / Q ",
"' ] {  .X.+.*.>.2.3.2.2.2.2.4.7.7.6.5.8.e.t.t.t.u.p.u.t.w.w.w.q.w.q.0.9.8.8.8.8.6.2.,.=.O.X...| [ _ ~ E ",
"` _ ' ] { ..#.;.,.<.,.>.>.,.2.4.4.4.3.7.9.w.w.w.t.u.t.e.0.0.0.0.9.9.8.8.8.7.5.5.3.,.:.*.O.} ] ] ' ) ! E ",
"^ / ) ) _ [ X.$.=.-.-.=.*.-.>.2.1.1.3.4.5.7.9.8.q.e.r.q.9.8.7.6.5.4.5.6.7.4.2.<.,.;.-.&.O.{ ) _ _ ( ! E ",
"W ~ ( _ _ ' | +.#.$.$.$.$.%.&.:.;.:.1.3.3.3.4.6.7.8.8.0.0.8.6.5.4.3.2.2.2.1.<.>.:.;.-.*.@.{ ( / ^ ~ Q E ",
"Y W / ( _ ' | o.O.O.O.+.@.+.#.&.*.=.>.>.<.,.<.3.4.6.6.8.8.7.4.3.3.<.>.:.>.>.:.-.=.*.&.%.O.[ ^ ! Q E E R ",
"I T ! ! ) ] ..o.o.o.X.o.O.X.O.$.%.&.*.=.=.-.:.,.1.3.5.5.4.4.1.1.>.-.*.*.=.=.&.$.@.+.o...| _ Q E R Y Y Y ",
"U T W ! / ' } X... .}  .....X.O.O.+.+.@.$.&.-.-.:.>.,.>.:.;.-.;.*.$.#.#.@.+.o.o.X. .{ ] ` / W E R Y Y Y ",
"E W Q ! ^ _ {  .} [ ' [ |  . . . .| { ..O.@.#.$.%.&.&.%.#.@.#.%.@.o.o...| [ [ } } [ ` ) ( ^ Q E E R T Y ",
"^ ^ ~ ~ ^ ) ` ` ' ' ` ' ] ] [ [ ] ' ` [ |  ...X.o.O.+.O.......O.X.} { ] ` / / ' ] ] _ ) _ ) ~ W E W R Y ",
"/ / / / / ( ( ) _ _ ` ` ' _ ) ) ) ( / ( _ ` ' ' [ }  .| } { } | } ] _ ( ^ ! ~ ` ' ` ) _ ` ) / ! W W E T ",
"! ^ ) _ ( ^ ~ ^ ( ) _ _ _ ( ^ ~ ~ ! Q Q Q Q ! ! ( ` ] ] ] ' ' ] ' _ / ~ ! ! ^ ` ` ) _ _ ( ( ( ^ Q W Q ! ",
"! ~ / ) ( ! W Q ! ~ ~ / ( ( ~ W R R E E E E E Q ^ ) ` _ ) ( ( ) / / / ^ ! Q ! ^ ( / ^ ~ ~ ^ ~ ~ ! Q ~ / ",
"! ~ ^ ( / W E E W W R ! / ( ~ E U U R E R R E ~ ^ ( _ ) / ~ ~ / ^ ~ / / ! W W ! ^ ^ Q W Q ! ~ Q ! ^ / / "
};
