/* XPM */
static char *_5862fc78cfa48a7ee2181eda55f0c835TPIN07qvvEzZUZ4[] = {
/* columns rows colors chars-per-pixel */
"52 52 28 1 ",
"  c None",
". c #424000",
"X c #4C5617",
"o c #5B681E",
"O c #5C6A1F",
"+ c #5C6A20",
"@ c #5D6B20",
"# c #5C6D21",
"$ c #5A6F32",
"% c #61702D",
"& c #696D33",
"* c #6C7037",
"= c #6D7138",
"- c #6E7239",
"; c #6E733A",
": c #6F743C",
"> c #937C3B",
", c #9A8342",
"< c #9C8443",
"1 c #D8BE7B",
"2 c #ADC171",
"3 c #AFC272",
"4 c #B0C372",
"5 c #B0C373",
"6 c #B0C473",
"7 c #B1C474",
"8 c #B2C474",
"9 c #B2C574",
/* pixels */
"                                                    ",
"                                                    ",
"                                                    ",
"                               ....                 ",
"                              .$$$$.                ",
"                            ...$55$..               ",
"                         . ..$$$55$$.. .            ",
"                        ...$$$55555$$....           ",
"                     <<<$$$$55555555$$$$X...        ",
"                     <1<$$5555555$$5355$$$$.        ",
"                  <<<<1<,<$55555$$$$555555$$...     ",
"               ..<<111111<$$$5555$$$$557555$$$$...  ",
"              .$$<<111111<<$$$55555$53555555$$.@@.  ",
"            ..$$$$$<<11111<<<$$55557335555$$..@@..  ",
"           .$$$5555$<11111111<$$$$555555$$$.@@@.@.  ",
"        ...$$555555$<<<111111<<<<$$666$$$..@...@@.  ",
"      ..$$$$5555555$$$<<111111111<$$$$$..@@.@@@...  ",
"     .$$$$55555$55555$$<<<<<11111<<<$..@@..@@..@@.  ",
"   ..$$$555555$$$55555$$$$$<<1111111<@@@.@@@.@@@@.  ",
"  .=.$$$$555575$$$$5555555$$<<<11111<...@...@@@...  ",
"  .==...$$$55555$$$$5555555$$$><1111<@@@.@@@@..@@.  ",
"  .====.$$$$555555$$$55555$%..@<1111<...@@@@.@@@@.  ",
"  ...===...$$$55555$56555$$.@@@<1111<@@@@...@@@...  ",
"  .==..====.$$$$5555555$$..@@@@<1111<@@@.@@@@..@@.  ",
"  .===..====...$$$$$5$$..@@@...<1111<...@@@@.@@@@.  ",
"  ...===...====...$$$..@@@@.@@@<1111<@@@@...@@@...  ",
"  .==..====...====...@@@@..@@@@<1111<@@@.@@@@..@@.  ",
"  .====.======.===.@@@@@.@@@...<1111<...@@@@.@@@@.  ",
"  ...===...====....@@@..@@@.@@@<1111<@@@@...@@@...  ",
"  .==..=:==...===&....@@@..@@@@<1111<@@@.@@@@..@@.  ",
"  .====.=====..===.@@@@o.@@@@@@<1111<...@@@@.@@@@.  ",
"  ...===...===.....@@@..@@@@...<1111<@@@@...@@@...  ",
"  .==..===...=====.@@.@@@@@.@@@<1111<@@@.@@@@@@.    ",
"  .====.=====.====...@@@@..@@@@<1111<...@@@@...     ",
"  ...===..=*==.....@@@@@.O@@...<1111<@@@@@..        ",
"  .==..===...=====.@@@..@@@.@@@<1111<@@@@..         ",
"  ...==.=====.====.@@.@@@..@@@@<1111<....           ",
"  .==..=...===.......@@@.@@@@..<1111<               ",
"  ...==.===..=====.@@@..@@@@.@@<1<<<<               ",
"     .==...==.====.@@.@@@@..@#@<1<                  ",
"     ...===..=.......@@@..@@@@@<<<                  ",
"        ...==.====.@@@..@@@@...                     ",
"           .===....@@.@@@@@.                        ",
"            ...===...@@@...                         ",
"               ....@@@..                            ",
"                 ..@@.                              ",
"                  ...                               ",
"                                                    ",
"                                                    ",
"                                                    ",
"                                                    ",
"                                                    "
};
