/* XPM */
static char *_5a7c057e66841acca181b17f0b22b69uh64YnWLHcflpHFu[] = {
/* columns rows colors chars-per-pixel */
"52 52 163 2 ",
"   c None",
".  c #030304",
"X  c #080704",
"o  c #0B0C05",
"O  c #070708",
"+  c #09070A",
"@  c #07090A",
"#  c #0C0C0C",
"$  c #170D05",
"%  c #140F08",
"&  c #0E1207",
"*  c #151604",
"=  c #191506",
"-  c #161904",
";  c #1A1B06",
":  c #13130C",
">  c #19170A",
",  c #16180B",
"<  c #1A1B0C",
"1  c #0D0D11",
"2  c #0F1113",
"3  c #131313",
"4  c #181513",
"5  c #161A12",
"6  c #1C1D14",
"7  c #18171C",
"8  c #1C1C1B",
"9  c #261B0F",
"0  c #2C1F14",
"q  c #221F1E",
"w  c #182005",
"e  c #1C220B",
"r  c #1F2213",
"t  c #1F211A",
"y  c #212306",
"u  c #23240D",
"i  c #2A2106",
"p  c #382109",
"a  c #232213",
"s  c #292716",
"d  c #2A2915",
"f  c #24231C",
"g  c #28261D",
"h  c #26281C",
"j  c #2B2B1D",
"k  c #283019",
"l  c #31301F",
"z  c #3E351D",
"x  c #1D1E21",
"c  c #221F22",
"v  c #1F2020",
"b  c #242423",
"n  c #292624",
"m  c #2A2B23",
"M  c #27272A",
"N  c #272929",
"B  c #2B2B2B",
"V  c #302F21",
"C  c #312F2C",
"Z  c #2F3125",
"A  c #2F302B",
"S  c #323226",
"D  c #3D3826",
"F  c #32322E",
"G  c #36392D",
"H  c #2D2D31",
"J  c #302E36",
"K  c #343433",
"L  c #383733",
"P  c #3A3A34",
"I  c #363639",
"U  c #39373A",
"Y  c #3C3C3C",
"T  c #373B39",
"R  c #442509",
"E  c #49391A",
"W  c #533B1B",
"Q  c #4B3A24",
"!  c #443C33",
"~  c #3F4036",
"^  c #5B411D",
"/  c #434128",
"(  c #5C4A23",
")  c #44443C",
"_  c #48473F",
"`  c #46483A",
"'  c #434434",
"]  c #524935",
"[  c #65532E",
"{  c #755328",
"}  c #655334",
"|  c #725C31",
" . c #7D6633",
".. c #3F3F40",
"X. c #403F41",
"o. c #3E4144",
"O. c #444343",
"+. c #474944",
"@. c #4B4B44",
"#. c #454449",
"$. c #484749",
"%. c #474848",
"&. c #4B4C4C",
"*. c #494745",
"=. c #524E46",
"-. c #4F5049",
";. c #52524E",
":. c #5D544D",
">. c #5E5E4B",
",. c #4F4F52",
"<. c #504F51",
"1. c #545454",
"2. c #5B5B55",
"3. c #575658",
"4. c #58565A",
"5. c #5A5A5B",
"6. c #565957",
"7. c #665C4C",
"8. c #645E57",
"9. c #5D615E",
"0. c #7F7544",
"q. c #63635D",
"w. c #796D5A",
"e. c #605F62",
"r. c #5E6265",
"t. c #636363",
"y. c #6B6B62",
"u. c #67676A",
"i. c #6A6A6B",
"p. c #766D63",
"a. c #70706F",
"s. c #6F6F72",
"d. c #6F7071",
"f. c #747474",
"g. c #777778",
"h. c #787778",
"j. c #7B7B7B",
"k. c #856728",
"l. c #926E31",
"z. c #997937",
"x. c #7D807E",
"c. c #A4834C",
"v. c #A78B52",
"b. c #B99354",
"n. c #80807E",
"m. c #A79960",
"M. c #7E7E80",
"N. c #807F85",
"B. c #848484",
"V. c #8A8986",
"C. c #868589",
"Z. c #8B8B8C",
"A. c #8F908E",
"S. c #939293",
"D. c #989698",
"F. c #9D9D9E",
"G. c #A09EA0",
"H. c #A2A1A2",
"J. c #A9A9AB",
"K. c #AAA6AB",
"L. c #B0AEB0",
"P. c #B7B7B7",
"I. c #C2C2C3",
/* pixels */
"                                                                                                        ",
"                                                                                                        ",
"                              + 7 T g.i.<.#.                                                            ",
"                            . . x i.I.H.h.t.1.                                                          ",
"                        5 7 # . 7 t.P.H.S.h.3.4.                                                        ",
"                        7 + . . O v i.L.J.9.b ;.f                                                       ",
"                      . # . 3 B n + b &.&.! E b #                                                       ",
"                      . . 2 Y $.F % $ 9 0 ^ l.Q g                                                       ",
"                      . + B i.$.$ p R { k.z.b.v.7.x                                                     ",
"                    , + 8 A 1.K 3 P ! :.8.:.! 0 4 + :                                                   ",
"                    O 7 H $.K 3 3 Y O.1.&.Y N O H T Y O.6.                                              ",
"                    1 B K T b # : n K O.Y n b n q.5.O.O.1.T K K Y                         -.3           ",
"                    3 H B + 8 h , o 8 H B 3 3 1.j.&.h e k y.h.h.D.G.t                   F K.H           ",
"                    o + + . * G ~ , 8 B B 3 # K 1.M             O.f.3 , e               5.C.M           ",
"                    t # . . . 3 7 o o # # + . # 8 8       ' Y B b K T 3 B <.1.O.5.$.i.u.M B #           ",
"                  f B b b : Y 5.,.Y Y B 3 + 7 b b T &.3.5.s.f.t.&.&.M.c b 2.i.+.a.&.x.N.# b B K %.#.    ",
"                8 b B O.2.s V.I.J.C.j.5.b 3 L 1.1.&.t.j.j.M.B.B.V.S.F.b = D ` z +./ >.1.3 O.$.t.Z.B.    ",
"                8 B O.t.j.j y.j.q.1.Y 3 . o r K L s j T Y Y 1.5.i.f.8 o W ^ Q c.z m.0.> o : & : 5 7     ",
"                  b O.i.n.j =.@.h h < * & , P t.V | [ m &.T 1.T x b X o i ] p.w.=.7.                    ",
"                  f T 1.i.s j s - h ` u < A 1.B.` [  .} G t B B 8 + M 6 m ` &.P T n                     ",
"                  f T $.1.V j l S O.a.) A O.t.M.r.m (  .> 3 # Y %.3 @.m Y F y                           ",
"                  b 1.j.t.5.h.B.h.1.Y f.1.Y 5.5.5.j e u 2 @.T t.5.3 H                                   ",
"                    B 3.M.B.Z.A.B.5.T 5.P S 5.4.O.f     3 &.Y t.g.Y 6                                   ",
"                    6 Y d.f.f.f.i.O.B T h s %.o.m         G ..1.i.t.5                                   ",
"                    - n $.&.1.1.O.B b 8 6 6 m m ,         e O.O.O.1.5                                   ",
"                    ; , b B K K B f 8 , 6 6 - y ,         r Y O.b ,                                     ",
"                      - < < < < < > = * = =                 1 1                                         ",
"                      - 6 f g g g g g g g f d                                                           ",
"                      , f B C K Y Y Y K T K b u                                                         ",
"                      > f N B O.1.1.;.T %.$.H b <                                                       ",
"                      < F &.K B O.;.A b O.$.K B <                                                       ",
"                      n O.O.K T O.m f B K O.&.*.C                                                       ",
"                    , B O.K Y $.P , 8 B B Y &.1.T f                                                     ",
"                    , b K K &.O.m ; 6 c B K Y 1.) K b                                                   ",
"                  a g F K &.5.O.h - < 8 B Y 1.5.1.K f                                                   ",
"                  > K O.B K K K m - * 6 b B K Y K Y 4.                                                  ",
"                  4 m Y B K O.Y b e     3 3 3 8 b Y t.2.                                                ",
"                  6 6 f K &.f.1.f       X . . # b B Y !                                                 ",
"                m J n < g K ,.P         o . # b 3 3 B B                                                 ",
"              f b B Y Y < b I g           : 8 b 7 # # #                                                 ",
"            , n U L Y Y 6 6 q             4 q f n B B b                                                 ",
"            ; m O.O.Y K b <               4 b M I ` +.`                                                 ",
"            ; ; < P ;.@.Z                 6 b K @.Z ,                                                   ",
"            B m < < h a                     6 < a m B S                                                 ",
"          - h F P m 6                         ; a B Y L                                                 ",
"        = a m Y &.T                           u g B o.O.                                                ",
"        m O.1.1.Y a                           y < n K O.;.                                              ",
"      ' u.u.T T L 6                           ; m K X.e.j.1.                                            ",
"    u 2.Z.B.t.&.U 6                         - - B K Y $.5.5.2.2.                                        ",
"  w : @.y.q.q.` m ,                         ; - h m m h m ' 8.y._                                       ",
"                                                                                                        ",
"                                                                                                        "
};
