/* XPM */
static char *ec2a10f607c9417faa5a11e52f8718fe8xj9DuvmCkIhPVsn[] = {
/* columns rows colors chars-per-pixel */
"52 52 210 2 ",
"   c None",
".  c #030304",
"X  c #0A0807",
"o  c #070509",
"O  c #08070A",
"+  c #070809",
"@  c #0B0B0B",
"#  c #130C0C",
"$  c #1B0F0B",
"%  c #120A04",
"&  c #040113",
"*  c #0E0C13",
"=  c #090914",
"-  c #110E15",
";  c #140E1A",
":  c #13071C",
">  c #08121B",
",  c #131313",
"<  c #1C1614",
"1  c #1D1916",
"2  c #15111C",
"3  c #1B1B1B",
"4  c #18171F",
"5  c #1B100A",
"6  c #29130A",
"7  c #3A1C0E",
"8  c #221D1C",
"9  c #2D1C18",
"0  c #241917",
"q  c #200D06",
"w  c #1F201F",
"e  c #26201A",
"r  c #372518",
"t  c #050D21",
"y  c #13022C",
"u  c #150521",
"i  c #0B1224",
"p  c #0B162C",
"a  c #151321",
"s  c #1B1425",
"d  c #1C1D21",
"f  c #1E162A",
"g  c #191A2D",
"h  c #190237",
"j  c #091538",
"k  c #0E0A3F",
"l  c #21192E",
"z  c #251E23",
"x  c #231B33",
"c  c #281F38",
"v  c #281F37",
"b  c #30113C",
"n  c #1F2121",
"m  c #1F2529",
"M  c #1B2439",
"N  c #232222",
"B  c #2B2B2B",
"V  c #262529",
"C  c #332B26",
"Z  c #252C31",
"A  c #2A213A",
"S  c #2E363A",
"D  c #323232",
"F  c #3B3B3B",
"G  c #3D3024",
"H  c #441809",
"J  c #462715",
"K  c #562B15",
"L  c #47311C",
"P  c #563618",
"I  c #522A0E",
"U  c #63250D",
"Y  c #632A14",
"T  c #68331A",
"R  c #783A1A",
"E  c #70290E",
"W  c #593823",
"Q  c #583B34",
"!  c #633A25",
"~  c #5C4011",
"^  c #6B4A15",
"/  c #684128",
"(  c #7A442C",
")  c #7A4F3A",
"_  c #0B1845",
"`  c #0A1C52",
"'  c #141559",
"]  c #140F43",
"[  c #220042",
"{  c #2B0350",
"}  c #33015D",
"|  c #360B49",
" . c #15264B",
".. c #0A245E",
"X. c #0C2251",
"o. c #142953",
"O. c #2E2541",
"+. c #2F3B40",
"@. c #343D42",
"#. c #2E3B5C",
"$. c #1B1566",
"%. c #0B2564",
"&. c #0A266D",
"*. c #07256D",
"=. c #1E3163",
"-. c #0B2974",
";. c #0B2B7C",
":. c #092773",
">. c #143171",
",. c #203162",
"<. c #3C474C",
"1. c #434443",
"2. c #4C4C4C",
"3. c #46545A",
"4. c #545353",
"5. c #735E4D",
"6. c #72665D",
"7. c #505F74",
"8. c #4C5367",
"9. c #53646C",
"0. c #566469",
"q. c #5E6E75",
"w. c #7A7A76",
"e. c #706767",
"r. c #9B3B17",
"t. c #802F15",
"y. c #8D4824",
"u. c #9A4C23",
"i. c #924825",
"p. c #8D522E",
"a. c #9B562D",
"s. c #8C5B38",
"d. c #985735",
"f. c #A64D24",
"g. c #A85628",
"h. c #A45D33",
"j. c #9A6139",
"k. c #8B603E",
"l. c #B76638",
"z. c #AF6939",
"x. c #8E6140",
"c. c #9B6743",
"v. c #846D5E",
"b. c #AE6D41",
"n. c #A06C4E",
"m. c #AD764A",
"M. c #BC7242",
"N. c #B7774A",
"B. c #B46F44",
"V. c #80746E",
"C. c #C5794A",
"Z. c #BF9572",
"A. c #B48462",
"S. c #C1814E",
"D. c #C68451",
"F. c #CC8D5A",
"G. c #CC8853",
"H. c #D28C5C",
"J. c #D2925D",
"K. c #D49562",
"L. c #D99967",
"P. c #C8986F",
"I. c #DEA170",
"U. c #0C2E83",
"Y. c #0C2F89",
"T. c #0D328C",
"R. c #0E3284",
"E. c #0D3593",
"W. c #0E3A97",
"Q. c #0F3A9B",
"!. c #103C9D",
"~. c #103996",
"^. c #133581",
"/. c #0F3EA5",
"(. c #113EA1",
"). c #1D408F",
"_. c #1F499E",
"`. c #2B529A",
"'. c #355796",
"]. c #284989",
"[. c #1341A3",
"{. c #1344AB",
"}. c #1C4AA7",
"|. c #234DA6",
" X c #2A53A2",
".X c #435C90",
"XX c #6A7980",
"oX c #738185",
"OX c #778489",
"+X c #8B9596",
"@X c #8B8F92",
"#X c #9EA49B",
"$X c #B1A89F",
"%X c #8084A4",
"&X c #9DA8AE",
"*X c #BEAEAE",
"=X c #AFB7AF",
"-X c #A5B0AC",
";X c #B4BBB1",
":X c #C0BDAB",
">X c #BEC4B7",
",X c #C1C6B8",
"<X c #B5B5C2",
"1X c #D4CAC3",
"2X c #D0C4C1",
"3X c #DCD3CF",
"4X c #E1DECE",
"5X c #E2DAD5",
"6X c #E9E4DA",
"7X c #EDE9E2",
/* pixels */
"                                                , V B B V V V V 3                                       ",
"                                              @ 3 3 3 3 w N 3 N N <                                     ",
"                                              # < < 1 1 1 8 0 1 8 < @ @                                 ",
"                                              t.d.y.a.j.j.s./ R i.y.                                    ",
"                                              r.C.l.D.G.K.I.L.K.C.C.                                    ",
"                                              r.f.f.M.D.F.K.L.H.l.g.                                    ",
"                                              f.l.l.l.g.M.H.L.C.g.                                      ",
"                                    V B N @.3.Q ! ( b.a.u.u.( Q #.<.# 3                                 ",
"                        4X1X1X$X1 , 3 N N  .'.].E.^.,.=.=.,.;.E. X7.j , e.*X                            ",
"                    2X5X6X7X<X&X0., 3 N N  .{. X'.|./.[./.{.{.[.'.'.(. .e 8..X                          ",
"                    3X6X1X%X|.{.[.%.i , , X.{.{.}.`.`.}.{.{.{.}..X{.{.[._ ` E.-.                        ",
"                    $X:X@X).W.W.!.{.T.> i !.{.{.{.{.}.,.%.=.%.o._.{.{.{.!.;.E.T...                      ",
"                  V e G C N N 8 t _ ..> p (.(.(.!.W.E.i J ^ P , T.(.(.W.U.%.:.*.p                       ",
"                  U a.F.K.K.F.N.s.T 9 = %.T.U.U.U.U.;.a ~ ^ ^ 1 U.U.U.;.%.M r r J                       ",
"                h.n.A.P.Z.Z.P.K.G.u.6 = T.!.!.!.!.!.~.p e L r 2 T.!.~.%.k Q J.S.g.                      ",
"              OXw.v.5.5.5.5.c.l.u.7 = y j &.;.U.U.U.T.R.R.-.-.-.;.Y.` h | k.L.D.g.                      ",
"          f.) V.6./ B D D D C P E : { } h _ &.;.Y.W.{.{.(.Y.T.{.!.U.` [ b D.F.N.g.                      ",
"          y.f.C.B.J 8 V N N 3 @ 6 u h { } ] ..U.T.E.[.!.T.;.;.W.(.T.$.[ # J L K                         ",
"            W x.Y T n.T r c.! 7 d.K & h y h ` ;.T.W.{.[.!.Y.E.(.T.;.' y $ T U                           ",
"              o q h.b.Y i.D.i.a.B.H & y h h _ %.T.E.(.(.E.U.U.!.T.;.' & 2 r 7 6                         ",
"                X 0 5 6 ! L $ 9 9 # , + o O p X.-.;.;.;.:.&.-.;.-.&.j o @ / N.m.h.                      ",
"                                  @ 3 , @ N d 4 M M g i t t t t i g d 1 . r p.j.s.U                     ",
"                                @ 3 3 @ , 3 3 N e B N X . . . . X N 3 , @ . - f l 2                     ",
"                              o 3 3 @ 3 B N 3 3 B B 3 , @ , @ @ @ , , 3 3 . * x x f -                   ",
"                              @ , , @ B B B D D D B V 3 3 B , @ , 3 3 N 3 . o f x l ; o o o >           ",
"                              V B D D D D D D D B N 3 , 3 B , @ , , 3 3 3 @ o * * - z 0 @ . . .         ",
"                            3 B D D D D D D D D B V 3 , , , , @ , 3 3 3 3 @ o X $ K z.m.s./ % .         ",
"                            N D D D D D D D D D D V d s @ o @ @ @ @ @ @ @ o 6 p.a.C.M.l.h.s.#           ",
"                          3 V B B D D D D D B V N l x 2 , , 3 3 3 3 , , , @ U B.c.W ! /                 ",
"                        3 B D B B B B D D D B B N l s * @ @ @ @ @ @ @ @ @ @ 6 0                         ",
"                        V D N , N 1.1.N @ N D B z l * @ @ @ , , 3 N N N N 3 ,                           ",
"                      3 3 @ B w.#X,X=X@XS o , z f ; - , 3 N N N N N N , , n n                           ",
"                      @ . , 0.-X,X>X=X&X0.. o @ o   * @ @ , , , , , @ o @.oX@X#X                        ",
"                    . o . m 9.oXOXOXoX3.3 . o O     . . . o @ @ , , @ o 3.@X=X;X+X                      ",
"                    ; a 2 @ Z +.S +.m @ ; s -         @ s a * * @ @ o + 3.q.oX+XXX                      ",
"                    l v x s a 2 2 2 f x x a *         @ s f f l f f f * <.9.9.q.                        ",
"                  f x A A A O.O.A c x s ;             @ f l s s f x x a 2 Z Z                           ",
"                l A O.O.A v x l x x a @               ; x x x x f s l x x a @                           ",
"            f x A v x v x x x v x s *               @ 2 x x x x x f f x x x s                           ",
"          s x A l f x A A A A v f *                 @ 2 f x x x x x f x x x f                           ",
"        s x A A l c A A A A v f ;                   @ 2 s f x x x x x x x x f                           ",
"      @ l c A c v v v x A A l 2 @                   @ f f s f f x x l l l x s                           ",
"    ; 2 f l x x x v c A v f -                       @ s x x x x x x x l f f 2                           ",
"  2 l l x v v x x l l s a ;                         @ - a s f f l x x x x x f 2                         ",
"    @ @ , , , , , , - * @                               @ @ 2 s s s f f f f a -                         ",
"    o @ , 3 3 N N w , @ .                                 o @ @ , - , , , @ o                           ",
"    @ , , N N N N N 3 o                                 o @ , , , , , , , @ o                           ",
"  . @ , 3 B F F F D 3 @                               @ @ , , , , , , , , , , ,                         ",
"@ 3 D F 1.2.2.2.2.2.1.1.F N                         . @ , , , , * @ @ , , , N N N 3 3 3                 ",
"@ N D 1.1.2.4.4.4.2.1.1.F ,                         o @ @ @ @ @ @ @ @ @ @ @ , 3 3 3 N B .               ",
"o , 3 3 N B B B B B N 3 3 ,                         o @ @ @ @ X o o + @ @ @ @ @ @ @ @ @ .               ",
"    , , , 3 3 3 3 3 3 , ,                                                                               "
};
