/* XPM */
static char *be0a34a33dd84cdfc56cff3cc720291aUhemPRqLfZuEI9u6[] = {
/* columns rows colors chars-per-pixel */
"52 52 163 2 ",
"   c None",
".  c #030304",
"X  c #080704",
"o  c #0B0C05",
"O  c #070708",
"+  c #09070A",
"@  c #07090A",
"#  c #0C0C0C",
"$  c #170D05",
"%  c #140F08",
"&  c #0E1207",
"*  c #151604",
"=  c #191506",
"-  c #161904",
";  c #1A1B06",
":  c #13130C",
">  c #19170A",
",  c #16180B",
"<  c #1A1B0C",
"1  c #0D0D11",
"2  c #0F1113",
"3  c #131313",
"4  c #181513",
"5  c #161A12",
"6  c #1C1D14",
"7  c #18171C",
"8  c #1C1C1B",
"9  c #261B0F",
"0  c #2C1F14",
"q  c #221F1E",
"w  c #182005",
"e  c #1C220B",
"r  c #1F2213",
"t  c #1F211A",
"y  c #212306",
"u  c #23240D",
"i  c #2A2106",
"p  c #382109",
"a  c #232213",
"s  c #292716",
"d  c #2A2915",
"f  c #24231C",
"g  c #28261D",
"h  c #26281C",
"j  c #2B2B1D",
"k  c #283019",
"l  c #31301F",
"z  c #3E351D",
"x  c #1D1E21",
"c  c #221F22",
"v  c #1F2020",
"b  c #242423",
"n  c #292624",
"m  c #2A2B23",
"M  c #27272A",
"N  c #272929",
"B  c #2B2B2B",
"V  c #302F21",
"C  c #312F2C",
"Z  c #2F3125",
"A  c #2F302B",
"S  c #323226",
"D  c #3D3826",
"F  c #32322E",
"G  c #36392D",
"H  c #2D2D31",
"J  c #302E36",
"K  c #343433",
"L  c #383733",
"P  c #3A3A34",
"I  c #363639",
"U  c #39373A",
"Y  c #3C3C3C",
"T  c #373B39",
"R  c #442509",
"E  c #49391A",
"W  c #533B1B",
"Q  c #4B3A24",
"!  c #443C33",
"~  c #3F4036",
"^  c #5B411D",
"/  c #434128",
"(  c #5C4A23",
")  c #44443C",
"_  c #48473F",
"`  c #46483A",
"'  c #434434",
"]  c #524935",
"[  c #65532E",
"{  c #755328",
"}  c #655334",
"|  c #725C31",
" . c #7D6633",
".. c #3F3F40",
"X. c #403F41",
"o. c #3E4144",
"O. c #444343",
"+. c #474944",
"@. c #4B4B44",
"#. c #454449",
"$. c #484749",
"%. c #474848",
"&. c #4B4C4C",
"*. c #494745",
"=. c #524E46",
"-. c #4F5049",
";. c #52524E",
":. c #5D544D",
">. c #5E5E4B",
",. c #4F4F52",
"<. c #504F51",
"1. c #545454",
"2. c #5B5B55",
"3. c #575658",
"4. c #58565A",
"5. c #5A5A5B",
"6. c #565957",
"7. c #665C4C",
"8. c #645E57",
"9. c #5D615E",
"0. c #7F7544",
"q. c #63635D",
"w. c #796D5A",
"e. c #605F62",
"r. c #5E6265",
"t. c #636363",
"y. c #6B6B62",
"u. c #67676A",
"i. c #6A6A6B",
"p. c #766D63",
"a. c #70706F",
"s. c #6F6F72",
"d. c #6F7071",
"f. c #747474",
"g. c #777778",
"h. c #787778",
"j. c #7B7B7B",
"k. c #856728",
"l. c #926E31",
"z. c #997937",
"x. c #7D807E",
"c. c #A4834C",
"v. c #A78B52",
"b. c #B99354",
"n. c #80807E",
"m. c #A79960",
"M. c #7E7E80",
"N. c #807F85",
"B. c #848484",
"V. c #8A8986",
"C. c #868589",
"Z. c #8B8B8C",
"A. c #8F908E",
"S. c #939293",
"D. c #989698",
"F. c #9D9D9E",
"G. c #A09EA0",
"H. c #A2A1A2",
"J. c #A9A9AB",
"K. c #AAA6AB",
"L. c #B0AEB0",
"P. c #B7B7B7",
"I. c #C2C2C3",
/* pixels */
"                                                                                                        ",
"                                                                                                        ",
"                                                            #.<.u.g.U 7 +                               ",
"                                                          1.t.h.H.I.u.x . .                             ",
"                                                        4.3.h.S.H.P.t.7 . # 7 5                         ",
"                                                      f ;.b 9.J.L.u.v @ X X + 7                         ",
"                                                      # b E ! &.&.b + n M 3 X # .                       ",
"                                                      g Q l.^ 0 9 $ % F $.Y 2 . .                       ",
"                                                    x 7.v.b.z.k.{ R p $ $.i.M + .                       ",
"                                                  : + 4 0 ! :.8.:.! P 3 I 3.A 8 + ,                     ",
"                                              6.O.Y U H @ N Y &.6.O.Y 3 3 K $.H 7 O                     ",
"          3 -.                        Y K K U 3.#.#.5.q.n b n Y #.I n : # b U K M 1                     ",
"          H K.F                   t G.D.h.h.y.k e h &.j.1.3 3 M H 8 o , j 8 + M H 3                     ",
"          b C.5.              e , 3 f.O.            M 3.I + 3 M B 8 , ~ G * X + + o                     ",
"          # B M i.u.$.5.O.3.<.M 3 L K b B Y )       8 8 # . + # # o o 5 4 . . . # t                     ",
"    #.$.K M b # N.x.&.a.+.i.2.b c M.&.&.t.f.s.5.3.&.U b b 7 + 3 B Y Y ,.5.Y : b b M f                   ",
"    B.Z.t.$.O.3 1.>./ +.z ` D = b F.S.V.C.C.M.j.j.t.&.3.1.K 3 b 5.j.C.J.I.V.s 2.O.B b 8                 ",
"    7 5 : & : o > 0.m.z c.Q ^ W o 8 f.i.5.3.Y Y T j s K I r o X 3 Y 3.q.j.y.j j.t.O.B 8                 ",
"                    7.=.w.p.] i o X b x U 1.U &.m [ | V t.L , & * < h h @.=.j n.u.O.b                   ",
"                    n L L &.` m 8 M + 8 B M t G }  .[ ` B.1.A < u _ h - s j s u.1.U f                   ",
"                          y F Y m @.3 $.Y # 4 >  .( m r.M.t.O.A ) a.O.S l j S 3.$.U f                   ",
"                                  H 3 5.t.U @.2 u e j 5.5.5.Y 1.f.Y 3.h.C.h.5.t.j.1.b                   ",
"                                  6 Y g.t.Y &.3     f O.4.5.S P 5.L 2.B.A.Z.B.M.3.B                     ",
"                                  5 t.u.1...G         m o.$.s h L B #.u.f.f.f.d.Y 6                     ",
"                                  5 1.#.#.O.e         , m m 6 6 8 b B $.1.1.&.@.n -                     ",
"                                    , b O.Y r         , y - 6 6 , 8 b B K K B b , ;                     ",
"                                        1 1                 = = * = > > < > > > -                       ",
"                                                          d f g g f g g g g f 6 -                       ",
"                                                        u f I U I Y Y Y I C M f ,                       ",
"                                                      < b H $.+.U ;.3.3.O.B N f >                       ",
"                                                      < B K $.O.b A ;.O.B K &.F <                       ",
"                                                      C *.&.#.I M f m +.U K #.+.n                       ",
"                                                    f U 1.&.Y B M 8 , P $.Y I #.M ,                     ",
"                                                  b K ) 3.Y I M c 8 - m #.&.I K b ,                     ",
"                                                  f I 3.5.3.Y M 8 > - j #.5.&.I F g a                   ",
"                                                  4.Y I Y I M b 8 * - m K K K M O.K >                   ",
"                                                2.t.Y b 8 4 3 7     e b Y #.I M Y m 4                   ",
"                                                Y Y B b # X . X       f 3.f.&.K f 6 6                   ",
"                                                n M 3 3 n # . o         L ,.K f > n J m                 ",
"                                                # # # 7 b 8 :           g I b < Y Y B b f               ",
"                                                b B M n f q 4             q 6 8 Y Y K U n ,             ",
"                                                _ +._ I M b 4               > b I Y O.O.m ;             ",
"                                                  , Z @.K b 8                 Z @.;.P > - -             ",
"                                                S B m a < 6                     a h < > m B             ",
"                                                L Y B a ;                         8 m L F h -           ",
"                                                O.o.B g u                           U &.Y m a =         ",
"                                              ;.O.K n > y                           a Y 1.1.O.m         ",
"                                            1.j.e.X.K m -                           8 K U U i.u.'       ",
"                                        2.2.5.5.$.Y K B - -                         8 U &.t.C.Z.2.u     ",
"                                      _ y.8.) m h m m h - -                         , m _ q.q.y.@.: w   ",
"                                                                                                        ",
"                                                                                                        "
};
