/* XPM */
static char *_92dafed043c4ddea3c498770c4e4d74L4P79TjU5HNAxlkT[] = {
/* columns rows colors chars-per-pixel */
"52 52 210 2 ",
"   c None",
".  c #030304",
"X  c #0A0807",
"o  c #070509",
"O  c #08070A",
"+  c #070809",
"@  c #0B0B0B",
"#  c #130C0C",
"$  c #1B0F0B",
"%  c #120A04",
"&  c #040113",
"*  c #0E0C13",
"=  c #090914",
"-  c #110E15",
";  c #140E1A",
":  c #13071C",
">  c #08121B",
",  c #131313",
"<  c #1C1614",
"1  c #1D1916",
"2  c #15111C",
"3  c #1B1B1B",
"4  c #18171F",
"5  c #1B100A",
"6  c #29130A",
"7  c #3A1C0E",
"8  c #221D1C",
"9  c #2D1C18",
"0  c #241917",
"q  c #200D06",
"w  c #1F201F",
"e  c #26201A",
"r  c #372518",
"t  c #050D21",
"y  c #13022C",
"u  c #150521",
"i  c #0B1224",
"p  c #0B162C",
"a  c #151321",
"s  c #1B1425",
"d  c #1C1D21",
"f  c #1E162A",
"g  c #191A2D",
"h  c #190237",
"j  c #091538",
"k  c #0E0A3F",
"l  c #21192E",
"z  c #251E23",
"x  c #231B33",
"c  c #281F38",
"v  c #281F37",
"b  c #30113C",
"n  c #1F2121",
"m  c #1F2529",
"M  c #1B2439",
"N  c #232222",
"B  c #2B2B2B",
"V  c #262529",
"C  c #332B26",
"Z  c #252C31",
"A  c #2A213A",
"S  c #2E363A",
"D  c #323232",
"F  c #3B3B3B",
"G  c #3D3024",
"H  c #441809",
"J  c #462715",
"K  c #562B15",
"L  c #47311C",
"P  c #563618",
"I  c #522A0E",
"U  c #63250D",
"Y  c #632A14",
"T  c #68331A",
"R  c #783A1A",
"E  c #70290E",
"W  c #593823",
"Q  c #583B34",
"!  c #633A25",
"~  c #5C4011",
"^  c #6B4A15",
"/  c #684128",
"(  c #7A442C",
")  c #7A4F3A",
"_  c #0B1845",
"`  c #0A1C52",
"'  c #141559",
"]  c #140F43",
"[  c #220042",
"{  c #2B0350",
"}  c #33015D",
"|  c #360B49",
" . c #15264B",
".. c #0A245E",
"X. c #0C2251",
"o. c #142953",
"O. c #2E2541",
"+. c #2F3B40",
"@. c #343D42",
"#. c #2E3B5C",
"$. c #1B1566",
"%. c #0B2564",
"&. c #0A266D",
"*. c #07256D",
"=. c #1E3163",
"-. c #0B2974",
";. c #0B2B7C",
":. c #092773",
">. c #143171",
",. c #203162",
"<. c #3C474C",
"1. c #434443",
"2. c #4C4C4C",
"3. c #46545A",
"4. c #545353",
"5. c #735E4D",
"6. c #72665D",
"7. c #505F74",
"8. c #4C5367",
"9. c #53646C",
"0. c #566469",
"q. c #5E6E75",
"w. c #7A7A76",
"e. c #706767",
"r. c #9B3B17",
"t. c #802F15",
"y. c #8D4824",
"u. c #9A4C23",
"i. c #924825",
"p. c #8D522E",
"a. c #9B562D",
"s. c #8C5B38",
"d. c #985735",
"f. c #A64D24",
"g. c #A85628",
"h. c #A45D33",
"j. c #9A6139",
"k. c #8B603E",
"l. c #B76638",
"z. c #AF6939",
"x. c #8E6140",
"c. c #9B6743",
"v. c #846D5E",
"b. c #AE6D41",
"n. c #A06C4E",
"m. c #AD764A",
"M. c #BC7242",
"N. c #B7774A",
"B. c #B46F44",
"V. c #80746E",
"C. c #C5794A",
"Z. c #BF9572",
"A. c #B48462",
"S. c #C1814E",
"D. c #C68451",
"F. c #CC8D5A",
"G. c #CC8853",
"H. c #D28C5C",
"J. c #D2925D",
"K. c #D49562",
"L. c #D99967",
"P. c #C8986F",
"I. c #DEA170",
"U. c #0C2E83",
"Y. c #0C2F89",
"T. c #0D328C",
"R. c #0E3284",
"E. c #0D3593",
"W. c #0E3A97",
"Q. c #0F3A9B",
"!. c #103C9D",
"~. c #103996",
"^. c #133581",
"/. c #0F3EA5",
"(. c #113EA1",
"). c #1D408F",
"_. c #1F499E",
"`. c #2B529A",
"'. c #355796",
"]. c #284989",
"[. c #1341A3",
"{. c #1344AB",
"}. c #1C4AA7",
"|. c #234DA6",
" X c #2A53A2",
".X c #435C90",
"XX c #6A7980",
"oX c #738185",
"OX c #778489",
"+X c #8B9596",
"@X c #8B8F92",
"#X c #9EA49B",
"$X c #B1A89F",
"%X c #8084A4",
"&X c #9DA8AE",
"*X c #BEAEAE",
"=X c #AFB7AF",
"-X c #A5B0AC",
";X c #B4BBB1",
":X c #C0BDAB",
">X c #BEC4B7",
",X c #C1C6B8",
"<X c #B5B5C2",
"1X c #D4CAC3",
"2X c #D0C4C1",
"3X c #DCD3CF",
"4X c #E1DECE",
"5X c #E2DAD5",
"6X c #E9E4DA",
"7X c #EDE9E2",
/* pixels */
"                                      3 V V V V V V V ,                                                 ",
"                                    1 N N 3 N N 3 3 3 1 @                                               ",
"                                + @ < 8 1 0 8 1 1 1 < < #                                               ",
"                                    y.i.t./ s.j.j.a.y.a.t.                                              ",
"                                    C.C.K.L.I.K.D.D.l.C.r.                                              ",
"                                    g.l.H.L.K.F.D.M.f.f.r.                                              ",
"                                      g.C.L.H.M.g.l.l.l.f.                                              ",
"                                3 # <.#.Q ( u.u.a.b.( ! Q 8.@.N V V                                     ",
"                            *Xe., j 7. XE.>.=.=.=.,.^.E.].'. .N N 1 , 1 $X1X2X4X                        ",
"                          .X8.e  .(.'.'.[.[.[././.(.|.'. X{. .N N 1 , 0.&X<X7X6X5X2X                    ",
"                        -.E.` _ [.{.{..X}.{.{.{.}.`.`.}.{.{.X., , i %.[.{.|.OX1X6X3X                    ",
"                      ..T.E.;.!.{.{.{._.o.=.=.%.,.}.{.{.{.{.!.i > T.{.!.W.W.).@X:X$X                    ",
"                      p *.:.%.U.W.!.(.T., P ^ J i W.W.!.(.(.(.p > .._ t 8 N N C G e V                   ",
"                      J r r M %.;.U.U.U.1 ^ ^ ~ a ;.U.U.U.R.T.%.= 9 R s.N.F.K.K.F.a.U                   ",
"                      g.S.J.Q k %.~.!.T.2 r L e p ~.!.!.!.!.!.T.= 6 u.G.K.P.Z.Z.P.A.n.h.                ",
"                      g.D.L.k.| h ` U.;.-.-.-.R.R.T.U.U.U.;.&.j y = 7 u.l.c.5.5.5.5.v.w.OX              ",
"                      g.N.F.D.b [ _ U.!.{.T.Y.(.{.{.Q.U.;.&._ h } { : E W C D D D B / 6.V.) f.          ",
"                        K L J # [ $.T.(.W.;.;.T.!.[.W.E.U...] } { h u 6 @ 3 N N V 8 J B.C.f.y.          ",
"                          U T $ y ' ;.T.(.E.U.!.[.{.W.T.;.` h y h & K d.7 ! n.r T c.T Y x.W             ",
"                        6 7 r 2 & ' ;.T.!.U.U.E.(.(.E.T.%._ h h y & H B.a.i.D.i.Y b.h.q .               ",
"                      h.m.N./ + o j *.;.;.-.&.*.;.;.;.-.X.p o o + , @ e 9 $ L ! 6 5 0 @                 ",
"                    U s.j.p.r . 1 d g i t t t t i g M M 4 d N + , 1 *                                   ",
"                    2 l l - . @ , 3 N X . . . . X N B e N 3 1 , @ 1 1 @                                 ",
"                  - f x x - . 1 1 , , @ + @ , @ , 1 V V 1 3 N V 1 @ 1 1 .                               ",
"          > o . o ; l x f . . 1 N 3 1 , @ 1 V 3 3 V B D D D B V V * , , +                               ",
"        . . . @ 0 z - * * . @ 3 3 1 , , @ 1 V 3 , 3 N V D D D D D D D D V                               ",
"        . % / s.m.b.K $ @ . @ 3 3 3 1 , , , , , , 3 V B D D D D D D D D B 1                             ",
"          # s.h.l.M.C.a.p.6 o + @ + + + + + . @ s d V D D D D D D D D D D N                             ",
"                / ! W c.B.U @ , , , 1 1 1 1 , , 2 x l N V B D D D D D B V V 3                           ",
"                        0 6 + @ @ @ @ @ + + + @ * s l N V B D D D B B V B D B 1                         ",
"                          , 3 N N N N N 1 , @ + + * l z B D N * n 1.1.N , N D V                         ",
"                          n n , , N V N N N N 1 , - ; f N 1 . S @X=X,X#Xw.B @ 3 3                       ",
"                        #X@XoX@.. + , , , , , @ @ *   o @ . . 0.&X;X>X,X-X0., . +                       ",
"                      +X;X=X@X3.o + , , + @ o . . .     O o . 3 3.oXOXOXoX9.m . o .                     ",
"                      XX+XoXq.3.+ . @ @ * * a s +         - s ; + m +.S +.Z @ 2 s ;                     ",
"                        q.9.9.<.* f f f l f f s @         * s x x f 2 2 2 a s x v l                     ",
"                          Z Z 4 a x x f s s l f @             ; s x c A O.O.A A A x f                   ",
"                          @ a x x l s l x x x x ;               @ s x x l x v A O.O.A l                 ",
"                          s x x x f f x x x x x 2 +               * s x v x x x v x v A x f             ",
"                          f x x x f x x x x x f 2 +                 * f v A A A A x f l A x s           ",
"                          f x x x x x x x x f s 2 +                   ; f v A A A A c l A A x s         ",
"                          s x l f f x x f f s f f @                   @ 2 l A A x v v x c A c l @       ",
"                          2 f f f x x x x x x x s +                       - f v A c v x x l l f 2 ;     ",
"                        2 f x x x x x l f f s s - +                         ; s s l l x x v v x l l 2   ",
"                        - s f f f f s s s 2 @ +                               + * - , , , , , , @ @     ",
"                          o @ , , , - , , @ .                                 . @ , w N N 3 1 , @ .     ",
"                          . @ , , , , , , , + .                                 . 1 N N N N N , , +     ",
"                        , , , , , , , , , , , @ +                               @ 1 D F F F B 3 , + .   ",
"                3 3 3 N N N , , , @ @ , , , , , @ .                         N F 1.1.2.2.2.2.2.1.F D 1 + ",
"              . V N 3 3 1 1 @ + + + + + + @ + + + .                         1 F 1.1.2.4.4.4.2.1.1.D N + ",
"              . @ + + + + + + + + + X . + + + + + .                         , 1 1 N V B B B V N 3 1 1 . ",
"                                                                              , , 1 1 1 1 1 1 , , ,     "
};
