/* XPM */
static char *_668c048a4894ec0b1fcbadf55cfa671E16fVShA9cBB0gVz[] = {
/* columns rows colors chars-per-pixel */
"52 52 54 1 ",
"  c None",
". c #1D1700",
"X c #060B17",
"o c #111110",
"O c #101116",
"+ c #161615",
"@ c #151618",
"# c #3B3007",
"$ c #372F10",
"% c #202124",
"& c #3C3827",
"* c #4E3E00",
"= c #564B1D",
"- c #6E5400",
"; c #615009",
": c #755D00",
"> c #6E5B14",
", c #514927",
"< c #524A26",
"1 c #524D3D",
"2 c #78682B",
"3 c #4A4C4E",
"4 c #404352",
"5 c #434553",
"6 c #70706E",
"7 c #706F72",
"8 c #876E08",
"9 c #F2C100",
"0 c #F4C300",
"q c #F5C705",
"w c #F9C701",
"e c #F8C602",
"r c #FECA00",
"t c #FFCA00",
"y c #FFCB00",
"u c #FFCC00",
"i c #FFCD00",
"p c #FFCC01",
"a c #FFCD01",
"s c #FFCE00",
"d c #FFCF00",
"f c #FECC02",
"g c #FECE0C",
"h c #FFD200",
"j c #F8D035",
"k c #B9A96E",
"l c #6C7581",
"z c #6E7681",
"x c #ABA694",
"c c #D1CBB3",
"v c #B5B7C1",
"b c #BFCCD1",
"n c #CED0D0",
"m c #C2CFE1",
/* pixels */
"                                                    ",
"                                                    ",
"                                                    ",
"                                                    ",
"                                                    ",
"                                                    ",
"                                                    ",
"                                                    ",
"                                                    ",
"                                                    ",
"                                                    ",
"                                                    ",
"                                                    ",
"                     ::::::::::::::::-:             ",
"                    :uuuuuuuuuuuuuuuu55:            ",
"                   55555XXXXXXXXXXu:5b55:           ",
"                  55bbbbbbbbbbbbb.X:5bb55:          ",
"                 55bbbbbbbbbbbbbbb.:5bmb45:         ",
"                 5bbbbbbbbbbbbbbbX::5:::551:        ",
"              kx55bbbbbbbbbbbbbbbX:55uuu:552:       ",
"             cuu5bbbbbbbbbbbbbbbXX:5:uu:555uu:      ",
"             vuu5bbbbbbbbbbbbbbXX::::5&*=<uuuu:     ",
"            ::::::::XXXXXXXXXXXXX::558uuuuuuuuu:    ",
"         ::>ujuuuuuuuuuuuq:::::::w::;uuuuuuuu:::    ",
"       ::uuuuuuuuuuuuugh::uuuuuuuu:wuuuuuuuu:#o:    ",
"     l<:uuuuuuuuuuuuuuu::uuuuuuuuu:uuuuuuuuuooo:    ",
"    ll:uuuuuuuuuutuuuu:ll:uuuuuuuu:uuuuuuuuoo6o$    ",
"   lbl:uuuuuuuuuuuuuu:llll:uuuuuuu:uuuuuuu:o666o    ",
"   lb:uuuuuuuuuuuuuuu:lbll:uu:::uu:uutuuuu:o6n6o    ",
"   ll:uuuuuuuuuuuuuuu:lbl::u:+++:u:0uuuuuu:o6n6o    ",
"  ::::uuuuuuuuuuuuuu::lll:u:+Oo++::9uuuuuu:o6n6o    ",
"  :u:uuuuuuuuuuuuuu:uu:::::@+666+::uuuuuuu:o6n6o    ",
"  :u:uuuuuuuuuuuuu:uuuuuu:++6666o::uuutuuu:o6n6o    ",
"  :uu:::::::::::::uuuuuuu::+66n76+:uuuuuuu:o666o    ",
"  :uuuuuuuuuuuuuuuuuuuuuuuu+6nnn6+:uuuuuuu:oo6oo    ",
"  :::::::::::::::::::::uuuu+6nnn6+:uuuuu::++ooo     ",
"  :%%%%%%%%%%%%%%%%%%%%:uu:+6nnn6+:uuu:::++         ",
"  :%333333333333333333%:uu:+6nnn6+:u::+++           ",
"  :%%%%333333333333333%:uu:+6nnn6+::++++            ",
"  +:::%%%%%%%%%%%%%%%%%:uu:+6nnn6++++               ",
"  +++::::::::::::::::::uuu:+66n66++                 ",
"  +++++++++++++++++++++::::+6666++                  ",
"   ++++++++++++++++++++++:++6666+                   ",
"     +++++++++++++++++++++++++++                    ",
"                                                    ",
"                                                    ",
"                                                    ",
"                                                    ",
"                                                    ",
"                                                    ",
"                                                    ",
"                                                    "
};
